{"glyphs":{"0":{"ha":882,"x_min":0,"x_max":746,"o":"m 0 678 q 136 814 0 814 l 610 814 q 746 678 746 814 l 746 136 q 610 0 746 0 l 136 0 q 0 136 0 0 l 0 678 m 203 678 l 203 136 l 543 136 l 543 678 l 203 678 z "},"1":{"ha":475,"x_min":0,"x_max":339,"o":"m 136 0 l 136 678 l 0 678 l 68 814 l 339 814 l 339 0 l 136 0 z "},"2":{"ha":882,"x_min":0,"x_max":746,"o":"m 610 814 q 746 678 746 814 l 746 590 q 610 407 746 473 q 203 271 203 274 l 203 136 l 746 136 l 746 0 l 0 0 l 0 271 q 136 407 0 347 l 543 543 l 543 678 l 0 678 l 0 814 l 610 814 z "},"3":{"ha":882,"x_min":0,"x_max":746,"o":"m 610 814 q 746 678 746 814 l 746 475 q 678 406 746 406 q 746 339 746 401 l 746 136 q 610 0 746 0 l 0 0 l 0 136 l 543 136 l 543 339 l 136 339 l 136 475 l 543 475 l 543 678 l 0 678 l 0 814 l 610 814 z "},"4":{"ha":949,"x_min":0,"x_max":814,"o":"m 509 678 l 475 678 l 203 407 l 203 339 l 509 339 l 509 678 m 0 203 l 0 407 l 407 814 l 712 814 l 712 339 l 814 339 l 814 203 l 712 203 l 712 0 l 509 0 l 509 203 l 0 203 z "},"5":{"ha":882,"x_min":0,"x_max":746,"o":"m 0 0 l 0 136 l 543 136 l 543 339 l 0 339 l 0 814 l 746 814 l 746 678 l 203 678 l 203 475 l 610 475 q 746 339 746 475 l 746 136 q 610 0 746 0 l 0 0 z "},"6":{"ha":882,"x_min":0,"x_max":746,"o":"m 203 407 l 203 136 l 543 136 l 543 407 l 203 407 m 746 814 l 746 678 l 203 678 l 203 543 l 610 543 q 746 407 746 543 l 746 136 q 610 0 746 0 l 136 0 q 0 136 0 0 l 0 678 q 136 814 0 814 l 746 814 z "},"7":{"ha":882,"x_min":0,"x_max":746,"o":"m 746 814 l 746 678 l 339 0 l 136 0 l 543 678 l 0 678 l 0 814 l 746 814 z "},"8":{"ha":882,"x_min":0,"x_max":746,"o":"m 610 814 q 746 678 746 814 l 746 543 q 644 407 746 407 q 746 271 746 407 l 746 136 q 610 0 746 0 l 136 0 q 0 136 0 0 l 0 271 q 102 407 0 407 q 0 543 0 412 l 0 678 q 136 814 0 814 l 610 814 m 203 678 l 203 475 l 543 475 l 543 678 l 203 678 m 203 339 l 203 136 l 543 136 l 543 339 l 203 339 z "},"9":{"ha":882,"x_min":0,"x_max":746,"o":"m 543 407 l 543 678 l 203 678 l 203 407 l 543 407 m 0 0 l 0 136 l 543 136 l 543 271 l 136 271 q 0 407 0 271 l 0 678 q 136 814 0 814 l 610 814 q 746 678 746 814 l 746 136 q 610 0 746 0 l 0 0 z "}," ":{"ha":339,"x_min":0,"x_max":0,"o":""},"!":{"ha":339,"x_min":0,"x_max":203,"o":"m 0 271 l 0 814 l 203 814 l 203 271 l 0 271 m 0 0 l 0 136 l 203 136 l 203 0 l 0 0 z "},"\"":{"ha":678,"x_min":0,"x_max":543,"o":"m 203 949 l 203 814 l 136 678 l 68 678 l 68 814 l 0 814 l 0 949 l 203 949 m 543 949 l 543 814 l 475 678 l 407 678 l 407 814 l 339 814 l 339 949 l 543 949 z "},"#":{"ha":732,"x_min":0,"x_max":597,"o":"m 74 195 l 0 195 l 0 315 l 98 315 l 131 475 l 0 475 l 0 595 l 155 595 l 198 808 l 320 808 l 277 595 l 397 595 l 439 808 l 565 808 l 522 595 l 597 595 l 597 475 l 497 475 l 465 315 l 597 315 l 597 195 l 440 195 l 397 -17 l 276 -17 l 317 195 l 197 195 l 154 -17 l 31 -17 l 74 195 m 253 475 l 221 315 l 342 315 l 373 475 l 253 475 z "},"$":{"ha":814,"x_min":0,"x_max":678,"o":"m 271 814 l 271 949 l 407 949 l 407 814 l 678 814 l 678 678 l 407 678 l 407 475 l 543 475 q 678 339 678 475 l 678 136 q 543 0 678 0 l 407 0 l 407 -136 l 271 -136 l 271 0 l 0 0 l 0 136 l 271 136 l 271 339 l 136 339 q 0 475 0 339 l 0 678 q 136 814 0 814 l 271 814 m 203 678 l 203 475 l 271 475 l 271 678 l 203 678 m 407 340 l 407 136 l 475 136 l 475 340 l 407 340 z "},"%":{"ha":1492,"x_min":0,"x_max":1356,"o":"m 814 407 q 949 543 814 543 l 1221 543 q 1356 407 1356 543 l 1356 136 q 1221 0 1356 0 l 949 0 q 814 136 814 0 l 814 407 m 983 407 l 983 136 l 1187 136 l 1187 407 l 983 407 m 949 814 l 543 0 l 407 0 l 814 814 l 949 814 m 0 678 q 136 814 0 814 l 407 814 q 543 678 543 814 l 543 407 q 407 271 543 271 l 136 271 q 0 407 0 271 l 0 678 m 170 678 l 170 407 l 373 407 l 373 678 l 170 678 z "},"&":{"ha":882,"x_min":0,"x_max":746,"o":"m 475 339 l 203 339 l 203 136 l 475 136 l 475 339 m 678 0 l 136 0 q 0 136 0 0 l 0 339 q 95 405 0 399 q 83 404 89 404 q 0 475 0 404 l 0 678 q 136 814 0 814 l 610 814 l 610 678 l 203 678 l 203 475 l 475 475 l 475 604 l 678 604 l 678 475 l 746 475 l 746 339 l 678 339 l 678 0 z "},"'":{"ha":407,"x_min":0,"x_max":271,"o":"m 271 949 l 271 814 l 136 678 l 68 678 l 68 814 l 0 814 l 0 949 l 271 949 z "},"(":{"ha":475,"x_min":0,"x_max":339,"o":"m 339 949 q 149 407 149 678 l 149 271 q 339 -271 149 0 l 203 -271 q 0 271 0 0 l 0 407 q 203 949 0 678 l 339 949 z "},")":{"ha":475,"x_min":0,"x_max":339,"o":"m 136 949 q 339 407 339 678 l 339 271 q 136 -271 339 0 l 0 -271 q 190 271 190 0 l 190 407 q 0 949 190 678 l 136 949 z "},"*":{"ha":627,"x_min":0,"x_max":492,"o":"m 147 469 l 45 549 q 146 654 94 604 q 173 680 168 674 q 76 702 156 682 q 0 723 18 716 l 40 842 q 199 763 129 806 q 182 943 182 873 l 303 943 q 285 762 303 894 q 343 788 298 767 q 456 836 404 816 l 492 713 q 317 680 416 696 l 399 588 q 437 543 423 560 l 334 474 l 242 625 q 147 469 201 552 z "},"+":{"ha":814,"x_min":0,"x_max":678,"o":"m 271 746 l 407 746 l 407 475 l 678 475 l 678 339 l 407 339 l 407 68 l 271 68 l 271 339 l 0 339 l 0 475 l 271 475 l 271 746 z "},",":{"ha":339,"x_min":0,"x_max":203,"o":"m 203 136 l 203 0 l 136 -136 l 68 -136 l 68 0 l 0 0 l 0 136 l 203 136 z "},"-":{"ha":678,"x_min":0,"x_max":543,"o":"m 543 475 l 543 339 l 0 339 l 0 475 l 543 475 z "},".":{"ha":339,"x_min":0,"x_max":203,"o":"m 203 136 l 203 0 l 0 0 l 0 136 l 203 136 z "},"/":{"ha":678,"x_min":0,"x_max":543,"o":"m 0 -271 l 407 949 l 543 949 l 136 -271 l 0 -271 z "},":":{"ha":339,"x_min":0,"x_max":203,"o":"m 203 136 l 203 0 l 0 0 l 0 136 l 203 136 m 203 678 l 203 543 l 0 543 l 0 678 l 203 678 z "},";":{"ha":339,"x_min":0,"x_max":203,"o":"m 203 678 l 203 543 l 0 543 l 0 678 l 203 678 m 203 136 l 203 0 l 136 -136 l 68 -136 l 68 0 l 0 0 l 0 136 l 203 136 z "},"<":{"ha":678,"x_min":0,"x_max":543,"o":"m 543 610 l 136 413 l 543 203 l 543 68 l 0 339 l 0 475 l 543 746 l 543 610 z "},"=":{"ha":678,"x_min":0,"x_max":543,"o":"m 543 610 l 543 475 l 0 475 l 0 610 l 543 610 m 543 339 l 543 203 l 0 203 l 0 339 l 543 339 z "},">":{"ha":678,"x_min":0,"x_max":543,"o":"m 0 746 l 543 475 l 543 339 l 0 68 l 0 203 l 407 413 l 0 610 l 0 746 z "},"?":{"ha":814,"x_min":0,"x_max":678,"o":"m 543 814 q 678 678 678 814 l 678 475 l 407 373 l 407 271 l 203 271 l 203 452 l 475 543 l 475 678 l 0 678 l 0 814 l 543 814 m 407 136 l 407 0 l 203 0 l 203 136 l 407 136 z "},"@":{"ha":1221,"x_min":0,"x_max":1085,"o":"m 475 543 l 475 136 l 610 136 l 610 543 l 475 543 m 814 136 q 949 271 949 136 l 949 678 q 814 814 949 814 l 271 814 q 136 678 136 814 l 136 0 q 271 -136 136 -136 l 949 -136 l 949 -271 l 271 -271 q 0 0 0 -271 l 0 678 q 271 949 0 949 l 814 949 q 1085 678 1085 949 l 1085 271 q 814 0 1085 0 l 407 0 q 271 136 271 0 l 271 543 q 407 678 271 678 l 814 678 l 814 136 z "},"A":{"ha":882,"x_min":0,"x_max":746,"o":"m 610 814 q 746 678 746 814 l 746 0 l 543 0 l 543 271 l 203 271 l 203 0 l 0 0 l 0 678 q 136 814 0 814 l 610 814 m 203 678 l 203 407 l 543 407 l 543 678 l 203 678 z "},"B":{"ha":882,"x_min":0,"x_max":746,"o":"m 610 814 q 746 678 746 814 l 746 543 q 644 407 746 407 q 746 271 746 407 l 746 136 q 610 0 746 0 l 0 0 l 0 814 l 610 814 m 203 678 l 203 475 l 543 475 l 543 678 l 203 678 m 203 339 l 203 136 l 543 136 l 543 339 l 203 339 z "},"C":{"ha":882,"x_min":0,"x_max":746,"o":"m 746 136 l 746 0 l 136 0 q 0 136 0 0 l 0 678 q 136 814 0 814 l 746 814 l 746 678 l 203 678 l 203 136 l 746 136 z "},"D":{"ha":882,"x_min":0,"x_max":746,"o":"m 0 814 l 610 814 q 746 678 746 814 l 746 136 q 610 0 746 0 l 0 0 l 0 814 m 203 678 l 203 136 l 543 136 l 543 678 l 203 678 z "},"E":{"ha":882,"x_min":0,"x_max":746,"o":"m 746 814 l 746 678 l 203 678 l 203 475 l 610 475 l 610 339 l 203 339 l 203 136 l 746 136 l 746 0 l 136 0 q 0 136 0 0 l 0 678 q 136 814 0 814 l 746 814 z "},"F":{"ha":882,"x_min":0,"x_max":746,"o":"m 746 814 l 746 678 l 203 678 l 203 475 l 610 475 l 610 339 l 203 339 l 203 0 l 0 0 l 0 678 q 136 814 0 814 l 746 814 z "},"G":{"ha":882,"x_min":0,"x_max":746,"o":"m 543 136 l 543 339 l 407 339 l 407 475 l 746 475 l 746 0 l 136 0 q 0 136 0 0 l 0 678 q 136 814 0 814 l 746 814 l 746 678 l 203 678 l 203 136 l 543 136 z "},"H":{"ha":882,"x_min":0,"x_max":746,"o":"m 203 814 l 203 475 l 543 475 l 543 814 l 746 814 l 746 0 l 543 0 l 543 339 l 203 339 l 203 0 l 0 0 l 0 814 l 203 814 z "},"I":{"ha":339,"x_min":0,"x_max":203,"o":"m 203 814 l 203 0 l 0 0 l 0 814 l 203 814 z "},"J":{"ha":610,"x_min":0,"x_max":475,"o":"m 0 0 l 0 136 l 271 136 l 271 814 l 475 814 l 475 136 q 339 0 475 0 l 0 0 z "},"K":{"ha":902,"x_min":0,"x_max":766,"o":"m 0 814 l 203 814 l 203 441 l 543 814 l 739 814 l 373 441 l 766 0 l 543 0 l 203 353 l 203 0 l 0 0 l 0 814 z "},"L":{"ha":882,"x_min":0,"x_max":746,"o":"m 136 0 q 0 136 0 0 l 0 814 l 203 814 l 203 136 l 746 136 l 746 0 l 136 0 z "},"M":{"ha":1017,"x_min":0,"x_max":882,"o":"m 271 814 l 441 224 l 608 814 l 882 814 l 882 0 l 678 0 l 678 543 l 543 68 l 300 68 l 136 543 l 136 0 l 0 0 l 0 814 l 271 814 z "},"N":{"ha":882,"x_min":0,"x_max":746,"o":"m 271 814 l 610 203 l 610 814 l 746 814 l 746 0 l 475 0 l 136 610 l 136 0 l 0 0 l 0 814 l 271 814 z "},"O":{"ha":882,"x_min":0,"x_max":746,"o":"m 0 678 q 136 814 0 814 l 610 814 q 746 678 746 814 l 746 136 q 610 0 746 0 l 136 0 q 0 136 0 0 l 0 678 m 203 678 l 203 136 l 543 136 l 543 678 l 203 678 z "},"P":{"ha":882,"x_min":0,"x_max":746,"o":"m 203 678 l 203 407 l 543 407 l 543 678 l 203 678 m 610 814 q 746 678 746 814 l 746 407 q 610 271 746 271 l 203 271 l 203 0 l 0 0 l 0 814 l 610 814 z "},"Q":{"ha":882,"x_min":0,"x_max":746,"o":"m 298 136 l 258 271 l 393 271 l 434 136 l 543 136 l 543 678 l 203 678 l 203 136 l 298 136 m 136 0 q 0 136 0 0 l 0 678 q 136 814 0 814 l 610 814 q 746 678 746 814 l 746 136 q 610 0 746 0 l 515 0 l 570 -136 l 434 -136 l 380 0 l 136 0 z "},"R":{"ha":882,"x_min":0,"x_max":746,"o":"m 203 678 l 203 475 l 543 475 l 543 678 l 203 678 m 0 0 l 0 814 l 610 814 q 746 678 746 814 l 746 475 q 610 339 746 339 l 746 0 l 543 0 l 407 339 l 203 339 l 203 0 l 0 0 z "},"S":{"ha":882,"x_min":0,"x_max":746,"o":"m 0 0 l 0 136 l 543 136 l 543 305 l 136 373 q 0 509 0 373 l 0 678 q 136 814 0 814 l 746 814 l 746 678 l 203 678 l 203 509 l 610 441 q 746 305 746 441 l 746 136 q 610 0 746 0 l 0 0 z "},"T":{"ha":882,"x_min":0,"x_max":746,"o":"m 746 814 l 746 678 l 475 678 l 475 0 l 271 0 l 271 678 l 0 678 l 0 814 l 746 814 z "},"U":{"ha":882,"x_min":0,"x_max":746,"o":"m 203 817 l 203 136 l 543 136 l 543 817 l 746 817 l 746 136 q 610 0 746 0 l 136 0 q 0 136 0 0 l 0 817 l 203 817 z "},"V":{"ha":882,"x_min":0,"x_max":746,"o":"m 203 817 l 203 271 l 543 136 l 543 817 l 746 817 l 746 0 l 543 0 l 136 136 q 0 339 0 203 l 0 817 l 203 817 z "},"W":{"ha":1289,"x_min":0,"x_max":1153,"o":"m 747 0 l 576 590 l 409 0 l 203 0 l 0 814 l 203 814 l 339 271 l 475 814 l 718 814 l 882 271 l 1017 814 l 1153 814 l 949 0 l 747 0 z "},"X":{"ha":892,"x_min":0,"x_max":757,"o":"m 0 0 l 271 407 l 0 814 l 224 814 l 407 543 l 604 814 l 752 814 l 486 407 l 757 0 l 543 0 l 362 281 l 136 0 l 0 0 z "},"Y":{"ha":882,"x_min":0,"x_max":746,"o":"m 203 814 l 203 543 q 370 478 285 478 q 543 543 454 478 l 543 814 l 746 814 l 746 543 q 475 339 746 407 l 475 0 l 271 0 l 271 339 q 0 543 0 407 l 0 814 l 203 814 z "},"Z":{"ha":882,"x_min":0,"x_max":746,"o":"m 746 814 l 746 678 l 271 136 l 746 136 l 746 0 l 0 0 l 0 136 l 475 678 l 0 678 l 0 814 l 746 814 z "},"[":{"ha":543,"x_min":0,"x_max":407,"o":"m 407 814 l 203 814 l 203 -136 l 407 -136 l 407 -271 l 0 -271 l 0 949 l 407 949 l 407 814 z "},"\\":{"ha":678,"x_min":0,"x_max":543,"o":"m 407 -271 l 0 949 l 136 949 l 543 -271 l 407 -271 z "},"]":{"ha":543,"x_min":0,"x_max":407,"o":"m 0 949 l 407 949 l 407 -271 l 0 -271 l 0 -136 l 203 -136 l 203 814 l 0 814 l 0 949 z "},"^":{"ha":814,"x_min":0,"x_max":678,"o":"m 543 407 l 345 814 l 136 407 l 0 407 l 271 949 l 407 949 l 678 407 l 543 407 z "},"_":{"ha":678,"x_min":0,"x_max":543,"o":"m 543 -136 l 543 -271 l 0 -271 l 0 -136 l 543 -136 z "},"`":{"ha":407,"x_min":0,"x_max":271,"o":"m 271 678 l 136 678 l 0 949 l 203 949 l 271 678 z "},"a":{"ha":814,"x_min":0,"x_max":678,"o":"m 475 407 l 475 543 l 68 543 l 68 678 l 543 678 q 678 543 678 678 l 678 0 l 136 0 q 0 136 0 0 l 0 271 q 136 407 0 407 l 475 407 m 203 271 l 203 136 l 475 136 l 475 271 l 203 271 z "},"b":{"ha":814,"x_min":0,"x_max":678,"o":"m 475 136 l 475 543 l 203 543 l 203 136 l 475 136 m 0 0 l 0 949 l 203 949 l 203 678 l 543 678 q 678 543 678 678 l 678 136 q 543 0 678 0 l 0 0 z "},"c":{"ha":814,"x_min":0,"x_max":678,"o":"m 678 136 l 678 0 l 136 0 q 0 136 0 0 l 0 543 q 136 678 0 678 l 678 678 l 678 543 l 203 543 l 203 136 l 678 136 z "},"d":{"ha":814,"x_min":0,"x_max":678,"o":"m 475 136 l 475 543 l 203 543 l 203 136 l 475 136 m 136 0 q 0 136 0 0 l 0 543 q 136 678 0 678 l 475 678 l 475 949 l 678 949 l 678 0 l 136 0 z "},"e":{"ha":814,"x_min":0,"x_max":678,"o":"m 678 0 l 136 0 q 0 136 0 0 l 0 543 q 136 678 0 678 l 543 678 q 678 543 678 678 l 678 271 l 203 271 l 203 136 l 678 136 l 678 0 m 203 543 l 203 407 l 475 407 l 475 543 l 203 543 z "},"f":{"ha":678,"x_min":0,"x_max":543,"o":"m 543 949 l 543 814 l 339 814 l 339 678 l 543 678 l 543 543 l 339 543 l 339 0 l 136 0 l 136 543 l 0 543 l 0 678 l 136 678 l 136 814 q 271 949 136 949 l 543 949 z "},"g":{"ha":814,"x_min":0,"x_max":678,"o":"m 475 136 l 475 543 l 203 543 l 203 136 l 475 136 m 0 -271 l 0 -136 l 475 -136 l 475 0 l 136 0 q 0 136 0 0 l 0 543 q 136 678 0 678 l 678 678 l 678 -136 q 543 -271 678 -271 l 0 -271 z "},"h":{"ha":814,"x_min":0,"x_max":678,"o":"m 475 3 l 475 543 l 203 543 l 203 3 l 0 3 l 0 949 l 203 949 l 203 678 l 543 678 q 678 543 678 678 l 678 3 l 475 3 z "},"i":{"ha":339,"x_min":0,"x_max":203,"o":"m 203 678 l 203 0 l 0 0 l 0 678 l 203 678 m 203 949 l 203 814 l 0 814 l 0 949 l 203 949 z "},"j":{"ha":543,"x_min":0,"x_max":407,"o":"m 0 -271 l 0 -136 l 203 -136 l 203 678 l 407 678 l 407 -136 q 271 -271 407 -271 l 0 -271 m 407 949 l 407 814 l 203 814 l 203 949 l 407 949 z "},"k":{"ha":814,"x_min":0,"x_max":678,"o":"m 0 882 l 203 882 l 203 373 l 475 678 l 658 678 l 359 359 l 678 0 l 475 0 l 203 305 l 203 0 l 0 0 l 0 882 z "},"l":{"ha":339,"x_min":0,"x_max":203,"o":"m 203 949 l 203 0 l 0 0 l 0 949 l 203 949 z "},"m":{"ha":1153,"x_min":0,"x_max":1017,"o":"m 882 678 q 1017 543 1017 678 l 1017 0 l 814 0 l 814 543 l 610 543 l 610 0 l 407 0 l 407 543 l 203 543 l 203 0 l 0 0 l 0 678 l 882 678 z "},"n":{"ha":814,"x_min":0,"x_max":678,"o":"m 475 3 l 475 543 l 203 543 l 203 3 l 0 3 l 0 678 l 543 678 q 678 543 678 678 l 678 3 l 475 3 z "},"o":{"ha":814,"x_min":0,"x_max":678,"o":"m 0 543 q 136 678 0 678 l 543 678 q 678 543 678 678 l 678 136 q 543 0 678 0 l 136 0 q 0 136 0 0 l 0 543 m 203 543 l 203 136 l 475 136 l 475 543 l 203 543 z "},"p":{"ha":814,"x_min":0,"x_max":678,"o":"m 203 543 l 203 136 l 475 136 l 475 543 l 203 543 m 543 678 q 678 543 678 678 l 678 136 q 543 0 678 0 l 203 0 l 203 -271 l 0 -271 l 0 678 l 543 678 z "},"q":{"ha":814,"x_min":0,"x_max":678,"o":"m 203 543 l 203 136 l 475 136 l 475 543 l 203 543 m 678 678 l 678 -271 l 475 -271 l 475 0 l 136 0 q 0 136 0 0 l 0 543 q 136 678 0 678 l 678 678 z "},"r":{"ha":610,"x_min":0,"x_max":475,"o":"m 475 678 l 475 543 l 203 543 l 203 0 l 0 0 l 0 543 q 136 678 0 678 l 475 678 z "},"s":{"ha":814,"x_min":0,"x_max":678,"o":"m 0 0 l 0 136 l 475 136 l 475 237 l 136 305 q 0 441 0 305 l 0 543 q 136 678 0 678 l 678 678 l 678 543 l 203 543 l 203 441 l 543 373 q 678 237 678 373 l 678 136 q 543 0 678 0 l 0 0 z "},"t":{"ha":678,"x_min":0,"x_max":543,"o":"m 136 543 l 0 543 l 0 678 l 136 678 l 136 882 l 339 949 l 339 678 l 543 678 l 543 543 l 339 543 l 339 136 l 543 136 l 543 0 l 271 0 q 136 136 136 0 l 136 543 z "},"u":{"ha":814,"x_min":0,"x_max":678,"o":"m 203 678 l 203 139 l 475 139 l 475 678 l 678 678 l 678 3 l 136 3 q 0 139 0 3 l 0 678 l 203 678 z "},"v":{"ha":814,"x_min":0,"x_max":678,"o":"m 203 682 l 203 203 l 475 136 l 475 682 l 678 682 l 678 0 l 475 0 l 136 68 q 0 271 0 136 l 0 682 l 203 682 z "},"w":{"ha":1153,"x_min":0,"x_max":1017,"o":"m 645 0 l 509 454 l 375 0 l 170 0 l 0 678 l 203 678 l 305 203 l 441 678 l 629 678 l 780 203 l 882 678 l 1017 678 l 848 0 l 645 0 z "},"x":{"ha":820,"x_min":0,"x_max":684,"o":"m 0 0 l 237 319 l 0 678 l 224 678 l 373 475 l 536 678 l 684 678 l 452 366 l 675 0 l 461 0 l 321 220 l 136 0 l 0 0 z "},"y":{"ha":814,"x_min":0,"x_max":678,"o":"m 203 677 l 203 136 l 475 136 l 475 677 l 678 677 l 678 -136 q 543 -271 678 -271 l 0 -271 l 0 -136 l 475 -136 l 475 0 l 136 0 q 0 136 0 0 l 0 677 l 203 677 z "},"z":{"ha":814,"x_min":0,"x_max":678,"o":"m 678 678 l 678 543 l 271 136 l 678 136 l 678 0 l 0 0 l 0 136 l 407 543 l 0 543 l 0 678 l 678 678 z "},"{":{"ha":543,"x_min":0,"x_max":407,"o":"m 407 949 l 407 814 q 271 678 271 814 l 271 475 q 136 339 271 339 q 271 136 271 339 l 271 0 q 407 -136 271 -136 l 407 -271 q 136 0 136 -271 l 136 136 q 0 271 136 271 l 0 407 q 136 543 136 407 l 136 678 q 407 949 136 949 z "},"|":{"ha":271,"x_min":0,"x_max":136,"o":"m 136 949 l 136 -271 l 0 -271 l 0 949 l 136 949 z "},"}":{"ha":543,"x_min":0,"x_max":407,"o":"m 0 949 q 271 678 271 949 l 271 543 q 407 407 271 407 l 407 271 q 271 136 271 271 l 271 0 q 0 -271 271 -271 l 0 -136 q 136 0 136 -136 l 136 136 q 271 339 136 339 q 136 475 136 339 l 136 678 q 0 814 136 814 l 0 949 z "},"~":{"ha":856,"x_min":0,"x_max":720,"o":"m 0 298 l 0 419 q 201 513 86 513 q 279 504 243 513 q 409 458 315 496 q 535 420 502 420 q 623 444 573 420 q 720 518 673 467 l 720 389 q 633 328 689 357 q 517 300 577 300 q 451 308 484 300 q 349 347 419 316 q 185 392 245 392 q 0 298 90 392 z "},"Ä":{"ha":882,"x_min":0,"x_max":746,"o":"m 610 814 q 746 678 746 814 l 746 0 l 543 0 l 543 271 l 203 271 l 203 0 l 0 0 l 0 678 q 136 814 0 814 l 610 814 m 203 678 l 203 407 l 543 407 l 543 678 l 203 678 m 237 1085 l 237 949 l 34 949 l 34 1085 l 237 1085 m 712 1085 l 712 949 l 509 949 l 509 1085 l 712 1085 z "},"Å":{"ha":882,"x_min":0,"x_max":746,"o":"m 610 814 q 746 678 746 814 l 746 0 l 543 0 l 543 271 l 203 271 l 203 0 l 0 0 l 0 678 q 136 814 0 814 l 610 814 m 203 678 l 203 407 l 543 407 l 543 678 l 203 678 m 373 1289 q 515 1229 456 1289 q 574 1086 574 1170 q 515 942 574 1002 q 373 883 456 883 q 231 942 290 883 q 172 1086 172 1002 q 231 1229 172 1170 q 373 1289 290 1289 m 373 1187 q 302 1158 332 1187 q 273 1086 273 1128 q 302 1014 273 1044 q 373 985 332 985 q 444 1014 414 985 q 473 1086 473 1044 q 444 1158 473 1128 q 373 1187 414 1187 z "},"Ç":{"ha":882,"x_min":0,"x_max":746,"o":"m 746 136 l 746 0 l 136 0 q 0 136 0 0 l 0 678 q 136 814 0 814 l 746 814 l 746 678 l 203 678 l 203 136 l 746 136 m 203 -136 q 339 0 339 -136 l 339 136 l 475 136 l 475 0 q 203 -271 475 -271 l 203 -136 z "},"É":{"ha":882,"x_min":0,"x_max":746,"o":"m 746 814 l 746 678 l 203 678 l 203 475 l 610 475 l 610 339 l 203 339 l 203 136 l 746 136 l 746 0 l 136 0 q 0 136 0 0 l 0 678 q 136 814 0 814 l 746 814 m 351 1153 l 554 1153 l 418 882 l 283 882 l 351 1153 z "},"Ñ":{"ha":882,"x_min":0,"x_max":746,"o":"m 271 814 l 610 203 l 610 814 l 746 814 l 746 0 l 475 0 l 136 610 l 136 0 l 0 0 l 0 814 l 271 814 m 226 905 l 139 905 q 138 930 138 921 q 173 1039 138 1001 q 262 1078 208 1078 q 306 1073 286 1078 q 380 1043 326 1067 q 465 1019 434 1019 q 501 1033 486 1019 q 519 1078 515 1046 l 608 1078 q 573 947 607 987 q 487 908 540 908 q 441 913 464 908 q 363 941 426 917 q 273 964 301 964 q 239 951 251 964 q 226 905 227 938 z "},"Ö":{"ha":882,"x_min":0,"x_max":746,"o":"m 0 678 q 136 814 0 814 l 610 814 q 746 678 746 814 l 746 136 q 610 0 746 0 l 136 0 q 0 136 0 0 l 0 678 m 203 678 l 203 136 l 543 136 l 543 678 l 203 678 m 237 1085 l 237 949 l 34 949 l 34 1085 l 237 1085 m 712 1085 l 712 949 l 509 949 l 509 1085 l 712 1085 z "},"Ü":{"ha":882,"x_min":0,"x_max":746,"o":"m 203 817 l 203 136 l 543 136 l 543 817 l 746 817 l 746 136 q 610 0 746 0 l 136 0 q 0 136 0 0 l 0 817 l 203 817 m 237 1085 l 237 949 l 34 949 l 34 1085 l 237 1085 m 712 1085 l 712 949 l 509 949 l 509 1085 l 712 1085 z "},"á":{"ha":814,"x_min":0,"x_max":678,"o":"m 475 407 l 475 543 l 68 543 l 68 678 l 543 678 q 678 543 678 678 l 678 0 l 136 0 q 0 136 0 0 l 0 271 q 136 407 0 407 l 475 407 m 203 271 l 203 136 l 475 136 l 475 271 l 203 271 m 317 1017 l 520 1017 l 385 746 l 249 746 l 317 1017 z "},"à":{"ha":814,"x_min":0,"x_max":678,"o":"m 475 407 l 475 543 l 68 543 l 68 678 l 543 678 q 678 543 678 678 l 678 0 l 136 0 q 0 136 0 0 l 0 271 q 136 407 0 407 l 475 407 m 203 271 l 203 136 l 475 136 l 475 271 l 203 271 m 429 746 l 294 746 l 158 1017 l 361 1017 l 429 746 z "},"â":{"ha":814,"x_min":0,"x_max":678,"o":"m 475 407 l 475 543 l 68 543 l 68 678 l 543 678 q 678 543 678 678 l 678 0 l 136 0 q 0 136 0 0 l 0 271 q 136 407 0 407 l 475 407 m 203 271 l 203 136 l 475 136 l 475 271 l 203 271 m 407 1017 l 610 746 l 475 746 l 339 882 l 203 746 l 68 746 l 271 1017 l 407 1017 z "},"ä":{"ha":814,"x_min":0,"x_max":678,"o":"m 475 407 l 475 543 l 68 543 l 68 678 l 543 678 q 678 543 678 678 l 678 0 l 136 0 q 0 136 0 0 l 0 271 q 136 407 0 407 l 475 407 m 203 271 l 203 136 l 475 136 l 475 271 l 203 271 m 203 949 l 203 814 l 0 814 l 0 949 l 203 949 m 678 949 l 678 814 l 475 814 l 475 949 l 678 949 z "},"ã":{"ha":814,"x_min":0,"x_max":678,"o":"m 475 407 l 475 543 l 68 543 l 68 678 l 543 678 q 678 543 678 678 l 678 0 l 136 0 q 0 136 0 0 l 0 271 q 136 407 0 407 l 475 407 m 203 271 l 203 136 l 475 136 l 475 271 l 203 271 m 192 770 l 105 770 q 104 794 104 785 q 139 904 104 865 q 228 942 174 942 q 272 937 252 942 q 346 908 292 932 q 431 884 400 884 q 467 897 452 884 q 486 943 481 911 l 574 943 q 539 812 573 851 q 453 772 506 772 q 408 777 430 772 q 330 805 392 781 q 239 829 267 829 q 205 815 217 829 q 192 770 193 802 z "},"å":{"ha":814,"x_min":0,"x_max":678,"o":"m 475 407 l 475 543 l 68 543 l 68 678 l 543 678 q 678 543 678 678 l 678 0 l 136 0 q 0 136 0 0 l 0 271 q 136 407 0 407 l 475 407 m 203 271 l 203 136 l 475 136 l 475 271 l 203 271 m 339 1153 q 481 1094 422 1153 q 540 950 540 1034 q 481 807 540 866 q 339 747 422 747 q 197 807 256 747 q 138 950 138 866 q 197 1094 138 1034 q 339 1153 256 1153 m 339 1052 q 268 1022 298 1052 q 239 950 239 992 q 268 879 239 908 q 339 849 298 849 q 410 879 380 849 q 439 950 439 908 q 410 1022 439 992 q 339 1052 380 1052 z "},"ç":{"ha":814,"x_min":0,"x_max":678,"o":"m 678 136 l 678 0 l 136 0 q 0 136 0 0 l 0 543 q 136 678 0 678 l 678 678 l 678 543 l 203 543 l 203 136 l 678 136 m 203 -136 q 339 0 339 -136 l 339 136 l 475 136 l 475 0 q 203 -271 475 -271 l 203 -136 z "},"é":{"ha":814,"x_min":0,"x_max":678,"o":"m 678 0 l 136 0 q 0 136 0 0 l 0 543 q 136 678 0 678 l 543 678 q 678 543 678 678 l 678 271 l 203 271 l 203 136 l 678 136 l 678 0 m 203 543 l 203 407 l 475 407 l 475 543 l 203 543 m 317 1017 l 520 1017 l 385 746 l 249 746 l 317 1017 z "},"è":{"ha":814,"x_min":0,"x_max":678,"o":"m 678 0 l 136 0 q 0 136 0 0 l 0 543 q 136 678 0 678 l 543 678 q 678 543 678 678 l 678 271 l 203 271 l 203 136 l 678 136 l 678 0 m 203 543 l 203 407 l 475 407 l 475 543 l 203 543 m 429 746 l 294 746 l 158 1017 l 361 1017 l 429 746 z "},"ê":{"ha":814,"x_min":0,"x_max":678,"o":"m 678 0 l 136 0 q 0 136 0 0 l 0 543 q 136 678 0 678 l 543 678 q 678 543 678 678 l 678 271 l 203 271 l 203 136 l 678 136 l 678 0 m 203 543 l 203 407 l 475 407 l 475 543 l 203 543 m 407 1017 l 610 746 l 475 746 l 339 882 l 203 746 l 68 746 l 271 1017 l 407 1017 z "},"ë":{"ha":814,"x_min":0,"x_max":678,"o":"m 678 0 l 136 0 q 0 136 0 0 l 0 543 q 136 678 0 678 l 543 678 q 678 543 678 678 l 678 271 l 203 271 l 203 136 l 678 136 l 678 0 m 203 543 l 203 407 l 475 407 l 475 543 l 203 543 m 203 949 l 203 814 l 0 814 l 0 949 l 203 949 m 678 949 l 678 814 l 475 814 l 475 949 l 678 949 z "},"í":{"ha":418,"x_min":0,"x_max":283,"o":"m 203 678 l 203 0 l 0 0 l 0 678 l 203 678 m 79 1017 l 283 1017 l 147 746 l 12 746 l 79 1017 z "},"ì":{"ha":418,"x_min":0,"x_max":283,"o":"m 283 678 l 283 0 l 79 0 l 79 678 l 283 678 m 271 746 l 136 746 l 0 1017 l 203 1017 l 271 746 z "},"î":{"ha":678,"x_min":0,"x_max":543,"o":"m 373 678 l 373 0 l 170 0 l 170 678 l 373 678 m 339 1017 l 543 746 l 407 746 l 271 882 l 136 746 l 0 746 l 203 1017 l 339 1017 z "},"ï":{"ha":814,"x_min":0,"x_max":678,"o":"m 441 678 l 441 0 l 237 0 l 237 678 l 441 678 m 203 949 l 203 814 l 0 814 l 0 949 l 203 949 m 678 949 l 678 814 l 475 814 l 475 949 l 678 949 z "},"ñ":{"ha":814,"x_min":0,"x_max":678,"o":"m 475 3 l 475 543 l 203 543 l 203 3 l 0 3 l 0 678 l 543 678 q 678 543 678 678 l 678 3 l 475 3 m 192 770 l 105 770 q 104 794 104 785 q 139 904 104 865 q 228 942 174 942 q 272 937 252 942 q 346 908 292 932 q 431 884 400 884 q 467 897 452 884 q 486 943 481 911 l 574 943 q 539 812 573 851 q 453 772 506 772 q 408 777 430 772 q 330 805 392 781 q 239 829 267 829 q 205 815 217 829 q 192 770 193 802 z "},"ó":{"ha":814,"x_min":0,"x_max":678,"o":"m 0 543 q 136 678 0 678 l 543 678 q 678 543 678 678 l 678 136 q 543 0 678 0 l 136 0 q 0 136 0 0 l 0 543 m 203 543 l 203 136 l 475 136 l 475 543 l 203 543 m 317 1017 l 520 1017 l 385 746 l 249 746 l 317 1017 z "},"ò":{"ha":814,"x_min":0,"x_max":678,"o":"m 0 543 q 136 678 0 678 l 543 678 q 678 543 678 678 l 678 136 q 543 0 678 0 l 136 0 q 0 136 0 0 l 0 543 m 203 543 l 203 136 l 475 136 l 475 543 l 203 543 m 429 746 l 294 746 l 158 1017 l 361 1017 l 429 746 z "},"ô":{"ha":814,"x_min":0,"x_max":678,"o":"m 0 543 q 136 678 0 678 l 543 678 q 678 543 678 678 l 678 136 q 543 0 678 0 l 136 0 q 0 136 0 0 l 0 543 m 203 543 l 203 136 l 475 136 l 475 543 l 203 543 m 407 1017 l 610 746 l 475 746 l 339 882 l 203 746 l 68 746 l 271 1017 l 407 1017 z "},"ö":{"ha":814,"x_min":0,"x_max":678,"o":"m 0 543 q 136 678 0 678 l 543 678 q 678 543 678 678 l 678 136 q 543 0 678 0 l 136 0 q 0 136 0 0 l 0 543 m 203 543 l 203 136 l 475 136 l 475 543 l 203 543 m 203 949 l 203 814 l 0 814 l 0 949 l 203 949 m 678 949 l 678 814 l 475 814 l 475 949 l 678 949 z "},"õ":{"ha":814,"x_min":0,"x_max":678,"o":"m 0 543 q 136 678 0 678 l 543 678 q 678 543 678 678 l 678 136 q 543 0 678 0 l 136 0 q 0 136 0 0 l 0 543 m 203 543 l 203 136 l 475 136 l 475 543 l 203 543 m 192 770 l 105 770 q 104 794 104 785 q 139 904 104 865 q 228 942 174 942 q 272 937 252 942 q 346 908 292 932 q 431 884 400 884 q 467 897 452 884 q 486 943 481 911 l 574 943 q 539 812 573 851 q 453 772 506 772 q 408 777 430 772 q 330 805 392 781 q 239 829 267 829 q 205 815 217 829 q 192 770 193 802 z "},"ú":{"ha":814,"x_min":0,"x_max":678,"o":"m 203 678 l 203 139 l 475 139 l 475 678 l 678 678 l 678 3 l 136 3 q 0 139 0 3 l 0 678 l 203 678 m 317 1017 l 520 1017 l 385 746 l 249 746 l 317 1017 z "},"ù":{"ha":814,"x_min":0,"x_max":678,"o":"m 203 678 l 203 139 l 475 139 l 475 678 l 678 678 l 678 3 l 136 3 q 0 139 0 3 l 0 678 l 203 678 m 429 746 l 294 746 l 158 1017 l 361 1017 l 429 746 z "},"û":{"ha":814,"x_min":0,"x_max":678,"o":"m 203 678 l 203 139 l 475 139 l 475 678 l 678 678 l 678 3 l 136 3 q 0 139 0 3 l 0 678 l 203 678 m 407 1017 l 610 746 l 475 746 l 339 882 l 203 746 l 68 746 l 271 1017 l 407 1017 z "},"ü":{"ha":814,"x_min":0,"x_max":678,"o":"m 203 678 l 203 139 l 475 139 l 475 678 l 678 678 l 678 3 l 136 3 q 0 139 0 3 l 0 678 l 203 678 m 203 949 l 203 814 l 0 814 l 0 949 l 203 949 m 678 949 l 678 814 l 475 814 l 475 949 l 678 949 z "},"†":{"ha":882,"x_min":0,"x_max":746,"o":"m 271 678 l 271 949 l 475 949 l 475 678 l 746 678 l 746 543 l 475 543 l 475 -271 l 271 -271 l 271 543 l 0 543 l 0 678 l 271 678 z "},"°":{"ha":678,"x_min":0,"x_max":543,"o":"m 271 949 q 463 870 384 949 q 543 678 543 791 q 463 486 543 566 q 271 407 384 407 q 79 486 159 407 q 0 678 0 566 q 79 870 0 791 q 271 949 159 949 m 271 814 q 175 774 215 814 q 136 678 136 734 q 175 582 136 622 q 271 543 215 543 q 367 582 328 543 q 407 678 407 622 q 367 774 407 734 q 271 814 328 814 z "},"¢":{"ha":814,"x_min":0,"x_max":678,"o":"m 678 136 l 678 0 l 407 0 l 407 -136 l 271 -136 l 271 0 l 136 0 q 0 136 0 0 l 0 543 q 136 678 0 678 l 271 678 l 271 814 l 407 814 l 407 678 l 678 678 l 678 543 l 203 543 l 203 136 l 678 136 z "},"£":{"ha":949,"x_min":0,"x_max":814,"o":"m 0 339 l 0 475 l 136 475 l 136 543 q 475 814 136 814 l 746 814 l 746 678 l 475 678 q 339 543 339 678 l 339 475 l 678 475 l 678 339 l 339 339 l 339 136 l 814 136 l 814 0 l 136 0 l 136 339 l 0 339 z "},"§":{"ha":814,"x_min":0,"x_max":678,"o":"m 475 -136 l 475 -20 l 203 36 q 0 203 0 68 l 0 678 q 136 814 0 814 l 678 814 l 678 678 l 203 678 l 203 563 l 475 507 q 678 339 678 475 l 678 -136 q 543 -271 678 -271 l 0 -271 l 0 -136 l 475 -136 m 203 407 l 203 203 l 475 136 l 475 339 l 203 407 z "},"•":{"ha":407,"x_min":0,"x_max":271,"o":"m 271 543 l 271 271 l 0 271 l 0 543 l 271 543 z "},"¶":{"ha":814,"x_min":0,"x_max":678,"o":"m 678 811 l 678 -271 l 543 -271 l 543 678 l 407 678 l 407 -271 l 271 -271 l 271 271 q 0 543 0 271 q 271 814 0 814 l 678 811 z "},"ß":{"ha":882,"x_min":0,"x_max":746,"o":"m 340 136 l 543 136 l 543 339 l 340 339 l 340 475 l 543 475 l 543 678 l 203 678 l 203 0 l 0 0 l 0 814 l 610 814 q 746 678 746 814 l 746 543 q 644 407 746 407 q 746 271 746 407 l 746 136 q 610 0 746 0 l 340 0 l 340 136 z "},"®":{"ha":1221,"x_min":0,"x_max":1085,"o":"m 271 814 q 136 678 136 814 l 136 0 q 271 -136 136 -136 l 814 -136 q 949 0 949 -136 l 949 678 q 814 814 949 814 l 271 814 m 271 949 l 814 949 q 1085 678 1085 949 l 1085 0 q 814 -271 1085 -271 l 271 -271 q 0 0 0 -271 l 0 678 q 271 949 0 949 m 678 678 q 814 543 814 678 l 814 339 q 722 273 814 273 q 814 203 814 267 l 814 0 l 610 0 l 610 203 l 475 203 l 475 0 l 271 0 l 271 678 l 678 678 m 475 543 l 475 339 l 610 339 l 610 543 l 475 543 z "},"©":{"ha":1221,"x_min":0,"x_max":1085,"o":"m 271 814 q 136 678 136 814 l 136 0 q 271 -136 136 -136 l 814 -136 q 949 0 949 -136 l 949 678 q 814 814 949 814 l 271 814 m 271 949 l 814 949 q 1085 678 1085 949 l 1085 0 q 814 -271 1085 -271 l 271 -271 q 0 0 0 -271 l 0 678 q 271 949 0 949 m 814 678 l 814 543 l 475 543 l 475 136 l 814 136 l 814 0 l 407 0 q 271 136 271 0 l 271 543 q 407 678 271 678 l 814 678 z "},"™":{"ha":1424,"x_min":0,"x_max":1289,"o":"m 543 949 l 543 814 l 339 814 l 339 271 l 203 271 l 203 814 l 0 814 l 0 949 l 543 949 m 791 949 l 947 461 l 1153 949 l 1289 949 l 1289 271 l 1153 271 l 1153 644 l 1017 271 l 882 271 l 746 644 l 746 271 l 610 271 l 610 949 l 791 949 z "},"´":{"ha":407,"x_min":0,"x_max":271,"o":"m 68 949 l 271 949 l 136 678 l 0 678 l 68 949 z "},"¨":{"ha":814,"x_min":0,"x_max":678,"o":"m 203 949 l 203 814 l 0 814 l 0 949 l 203 949 m 678 949 l 678 814 l 475 814 l 475 949 l 678 949 z "},"≠":{"ha":814,"x_min":0,"x_max":678,"o":"m 319 610 l 387 882 l 522 882 l 454 610 l 678 610 l 678 475 l 420 475 l 387 339 l 678 339 l 678 203 l 332 203 l 264 -68 l 129 -68 l 197 203 l 0 203 l 0 339 l 251 339 l 285 475 l 0 475 l 0 610 l 319 610 z "},"Æ":{"ha":1289,"x_min":0,"x_max":1153,"o":"m 1153 814 l 1153 678 l 678 678 l 678 475 l 1017 475 l 1017 339 l 678 339 l 678 136 l 1153 136 l 1153 0 l 610 0 q 475 136 475 0 l 475 271 l 203 271 l 203 0 l 0 0 l 0 678 q 136 814 0 814 l 1153 814 m 203 678 l 203 407 l 475 407 l 475 678 l 203 678 z "},"Ø":{"ha":882,"x_min":0,"x_max":746,"o":"m 0 678 q 136 814 0 814 l 610 814 q 746 678 746 814 l 746 136 q 610 0 746 0 l 136 0 q 0 136 0 0 l 0 678 m 543 136 l 543 407 l 203 271 l 203 136 l 543 136 m 203 678 l 203 407 l 543 543 l 543 678 l 203 678 z "},"∞":{"ha":1085,"x_min":0,"x_max":949,"o":"m 271 407 q 175 367 215 407 q 136 271 136 328 q 175 175 136 215 q 271 136 215 136 q 367 175 328 136 q 407 271 407 215 q 367 367 407 328 q 271 407 328 407 m 678 407 q 582 367 622 407 q 543 271 543 328 q 582 175 543 215 q 678 136 622 136 q 774 175 734 136 q 814 271 814 215 q 774 367 814 328 q 678 407 734 407 m 475 407 q 678 543 485 543 q 949 271 949 543 q 678 0 949 0 q 479 136 479 0 q 271 0 475 0 q 0 271 0 0 q 271 543 0 543 q 475 407 475 543 z "},"±":{"ha":814,"x_min":0,"x_max":678,"o":"m 678 136 l 678 0 l 0 0 l 0 136 l 678 136 m 271 814 l 407 814 l 407 610 l 678 610 l 678 475 l 407 475 l 407 271 l 271 271 l 271 475 l 0 475 l 0 610 l 271 610 l 271 814 z "},"≤":{"ha":678,"x_min":0,"x_max":543,"o":"m 543 746 l 136 549 l 543 339 l 543 203 l 0 475 l 0 610 l 543 882 l 543 746 m 543 136 l 543 0 l 0 0 l 0 136 l 543 136 z "},"≥":{"ha":678,"x_min":0,"x_max":543,"o":"m 0 882 l 543 610 l 543 475 l 0 203 l 0 339 l 407 549 l 0 746 l 0 882 m 543 136 l 543 0 l 0 0 l 0 136 l 543 136 z "},"¥":{"ha":882,"x_min":0,"x_max":746,"o":"m 203 814 l 203 543 q 370 478 285 478 q 543 543 454 478 l 543 814 l 746 814 l 746 543 q 475 339 746 407 l 475 272 l 678 272 l 678 136 l 475 135 l 475 1 l 271 0 l 271 139 l 68 137 l 68 267 l 271 270 l 271 339 q 0 543 0 407 l 0 814 l 203 814 z "},"µ":{"ha":814,"x_min":0,"x_max":678,"o":"m 203 678 l 203 136 l 475 136 l 475 678 l 678 678 l 678 136 q 543 0 678 0 l 203 0 l 203 -271 l 0 -271 l 0 678 l 203 678 z "},"∂":{"ha":882,"x_min":0,"x_max":746,"o":"m 203 407 l 203 136 l 543 136 l 543 407 l 203 407 m 610 814 q 746 678 746 814 l 746 136 q 610 0 746 0 l 136 0 q 0 136 0 0 l 0 407 q 136 543 0 543 l 543 543 l 543 678 l 0 678 l 0 814 l 610 814 z "},"∑":{"ha":949,"x_min":0,"x_max":814,"o":"m 814 814 l 814 678 l 271 678 l 610 339 l 610 271 l 203 -136 l 814 -136 l 814 -271 l 0 -271 l 0 -136 l 387 250 l 0 658 l 0 814 l 814 814 z "},"∏":{"ha":882,"x_min":0,"x_max":746,"o":"m 746 814 l 746 -271 l 543 -271 l 543 678 l 203 678 l 203 -271 l 0 -271 l 0 814 l 746 814 z "},"π":{"ha":1017,"x_min":0,"x_max":882,"o":"m 882 678 l 882 543 l 746 543 l 746 0 l 543 0 l 543 543 l 339 543 l 339 0 l 136 0 l 136 543 l 0 543 l 0 678 l 882 678 z "},"∫":{"ha":746,"x_min":0,"x_max":610,"o":"m 203 814 q 339 949 203 949 l 610 949 l 610 814 l 407 814 l 407 -136 q 271 -271 407 -271 l 0 -271 l 0 -136 l 203 -136 l 203 814 z "},"ª":{"ha":746,"x_min":0,"x_max":610,"o":"m 407 678 l 407 814 l 68 814 l 68 949 l 475 949 q 610 814 610 949 l 610 271 l 136 271 q 0 407 0 271 l 0 543 q 136 678 0 678 l 407 678 m 203 543 l 203 407 l 407 407 l 407 543 l 203 543 z "},"º":{"ha":746,"x_min":0,"x_max":610,"o":"m 0 814 q 136 949 0 949 l 475 949 q 610 814 610 949 l 610 407 q 475 271 610 271 l 136 271 q 0 407 0 271 l 0 814 m 203 814 l 203 407 l 407 407 l 407 814 l 203 814 z "},"Ω":{"ha":882,"x_min":0,"x_max":746,"o":"m 136 136 q 0 339 0 203 l 0 543 q 271 814 0 814 l 475 814 q 746 543 746 814 l 746 339 q 543 136 746 203 l 746 136 l 746 0 l 407 0 l 407 203 q 543 339 543 203 l 543 543 q 407 678 543 678 l 339 678 q 203 543 203 678 l 203 339 q 339 203 203 203 l 339 0 l 0 0 l 0 136 l 136 136 z "},"æ":{"ha":1153,"x_min":0,"x_max":1017,"o":"m 882 678 q 1017 543 1017 678 l 1017 271 l 610 271 l 610 136 l 1017 136 l 1017 0 l 136 0 q 0 136 0 0 l 0 271 q 136 407 0 407 l 407 407 l 407 543 l 68 543 l 68 678 l 882 678 m 203 271 l 203 136 l 407 136 l 407 271 l 203 271 m 610 543 l 610 407 l 814 407 l 814 543 l 610 543 z "},"ø":{"ha":814,"x_min":0,"x_max":678,"o":"m 0 543 q 136 678 0 678 l 543 678 q 678 543 678 678 l 678 136 q 543 0 678 0 l 136 0 q 0 136 0 0 l 0 543 m 475 136 l 475 339 l 203 203 l 203 136 l 475 136 m 203 543 l 203 339 l 475 475 l 475 543 l 203 543 z "},"¿":{"ha":814,"x_min":0,"x_max":678,"o":"m 136 -136 q 0 0 0 -136 l 0 203 l 271 305 l 271 407 l 475 407 l 475 226 l 203 136 l 203 0 l 678 0 l 678 -136 l 136 -136 m 271 543 l 271 678 l 475 678 l 475 543 l 271 543 z "},"¡":{"ha":339,"x_min":0,"x_max":203,"o":"m 203 407 l 203 -136 l 0 -136 l 0 407 l 203 407 m 203 678 l 203 543 l 0 543 l 0 678 l 203 678 z "},"¬":{"ha":678,"x_min":0,"x_max":543,"o":"m 543 203 l 407 203 l 407 339 l 0 339 l 0 475 l 543 475 l 543 203 z "},"√":{"ha":1153,"x_min":0,"x_max":1017,"o":"m 244 407 l 374 -61 l 610 949 l 1017 949 l 1017 814 l 726 814 l 454 -271 l 305 -271 l 136 271 l 0 271 l 0 407 l 244 407 z "},"ƒ":{"ha":746,"x_min":0,"x_max":610,"o":"m 68 543 l 68 678 l 203 678 l 203 814 q 339 949 203 949 l 610 949 l 610 814 l 407 814 l 407 678 l 610 678 l 610 543 l 407 543 l 407 -136 q 271 -271 407 -271 l 0 -271 l 0 -136 l 203 -136 l 203 543 l 68 543 z "},"≈":{"ha":856,"x_min":0,"x_max":720,"o":"m 0 407 l 0 528 q 201 622 86 622 q 279 613 243 622 q 409 567 315 605 q 535 530 502 530 q 623 553 573 530 q 720 627 673 576 l 720 498 q 633 437 689 466 q 517 409 577 409 q 451 417 484 409 q 349 456 419 425 q 185 501 245 501 q 0 407 90 501 m 0 186 l 0 308 q 201 401 86 401 q 279 393 243 401 q 409 347 315 385 q 535 309 502 309 q 623 333 573 309 q 720 407 673 356 l 720 278 q 633 217 689 245 q 517 189 577 189 q 451 197 484 189 q 349 235 419 205 q 185 281 245 281 q 0 186 90 281 z "},"∆":{"ha":882,"x_min":0,"x_max":746,"o":"m 441 814 l 746 136 l 746 0 l 0 0 l 0 136 l 305 814 l 441 814 m 556 136 l 339 610 l 136 136 l 556 136 z "},"«":{"ha":773,"x_min":0,"x_max":637,"o":"m 339 678 l 136 407 l 339 136 l 203 136 l 0 407 l 203 678 l 339 678 m 637 678 l 434 407 l 637 136 l 502 136 l 298 407 l 502 678 l 637 678 z "},"»":{"ha":773,"x_min":0,"x_max":637,"o":"m 136 678 l 339 407 l 136 136 l 0 136 l 203 407 l 0 678 l 136 678 m 434 678 l 637 407 l 434 136 l 298 136 l 502 407 l 298 678 l 434 678 z "},"…":{"ha":1286,"x_min":0,"x_max":1150,"o":"m 203 136 l 203 0 l 0 0 l 0 136 l 203 136 m 680 136 l 680 0 l 477 0 l 477 136 l 680 136 m 1150 136 l 1150 0 l 947 0 l 947 136 l 1150 136 z "}," ":{"ha":339,"x_min":0,"x_max":0,"o":""},"À":{"ha":882,"x_min":0,"x_max":746,"o":"m 610 814 q 746 678 746 814 l 746 0 l 543 0 l 543 271 l 203 271 l 203 0 l 0 0 l 0 678 q 136 814 0 814 l 610 814 m 203 678 l 203 407 l 543 407 l 543 678 l 203 678 m 418 882 l 283 882 l 147 1153 l 351 1153 l 418 882 z "},"Ã":{"ha":882,"x_min":0,"x_max":746,"o":"m 610 814 q 746 678 746 814 l 746 0 l 543 0 l 543 271 l 203 271 l 203 0 l 0 0 l 0 678 q 136 814 0 814 l 610 814 m 203 678 l 203 407 l 543 407 l 543 678 l 203 678 m 226 905 l 139 905 q 138 930 138 921 q 173 1039 138 1001 q 262 1078 208 1078 q 306 1073 286 1078 q 380 1043 326 1067 q 465 1019 434 1019 q 501 1033 486 1019 q 519 1078 515 1046 l 608 1078 q 573 947 607 987 q 487 908 540 908 q 441 913 464 908 q 363 941 426 917 q 273 964 301 964 q 239 951 251 964 q 226 905 227 938 z "},"Õ":{"ha":882,"x_min":0,"x_max":746,"o":"m 0 678 q 136 814 0 814 l 610 814 q 746 678 746 814 l 746 136 q 610 0 746 0 l 136 0 q 0 136 0 0 l 0 678 m 203 678 l 203 136 l 543 136 l 543 678 l 203 678 m 226 905 l 139 905 q 138 930 138 921 q 173 1039 138 1001 q 262 1078 208 1078 q 306 1073 286 1078 q 380 1043 326 1067 q 465 1019 434 1019 q 501 1033 486 1019 q 519 1078 515 1046 l 608 1078 q 573 947 607 987 q 487 908 540 908 q 441 913 464 908 q 363 941 426 917 q 273 964 301 964 q 239 951 251 964 q 226 905 227 938 z "},"Œ":{"ha":1289,"x_min":0,"x_max":1153,"o":"m 1153 814 l 1153 678 l 678 678 l 678 475 l 1017 475 l 1017 339 l 678 339 l 678 136 l 1153 136 l 1153 0 l 136 0 q 0 136 0 0 l 0 678 q 136 814 0 814 l 1153 814 m 203 678 l 203 136 l 475 136 l 475 678 l 203 678 z "},"œ":{"ha":1153,"x_min":0,"x_max":1017,"o":"m 882 678 q 1017 543 1017 678 l 1017 271 l 610 271 l 610 136 l 1017 136 l 1017 0 l 136 0 q 0 136 0 0 l 0 543 q 136 678 0 678 l 882 678 m 203 543 l 203 136 l 407 136 l 407 543 l 203 543 m 610 543 l 610 407 l 814 407 l 814 543 l 610 543 z "},"–":{"ha":678,"x_min":0,"x_max":543,"o":"m 543 475 l 543 339 l 0 339 l 0 475 l 543 475 z "},"—":{"ha":814,"x_min":0,"x_max":678,"o":"m 678 475 l 678 339 l 0 339 l 0 475 l 678 475 z "},"“":{"ha":678,"x_min":0,"x_max":543,"o":"m 339 678 l 339 814 l 407 949 l 475 949 l 475 814 l 543 814 l 543 678 l 339 678 m 0 678 l 0 814 l 68 949 l 136 949 l 136 814 l 203 814 l 203 678 l 0 678 z "},"”":{"ha":678,"x_min":0,"x_max":543,"o":"m 203 949 l 203 814 l 136 678 l 68 678 l 68 814 l 0 814 l 0 949 l 203 949 m 543 949 l 543 814 l 475 678 l 407 678 l 407 814 l 339 814 l 339 949 l 543 949 z "},"‘":{"ha":339,"x_min":0,"x_max":203,"o":"m 0 678 l 0 814 l 68 949 l 136 949 l 136 814 l 203 814 l 203 678 l 0 678 z "},"’":{"ha":339,"x_min":0,"x_max":203,"o":"m 203 949 l 203 814 l 136 678 l 68 678 l 68 814 l 0 814 l 0 949 l 203 949 z "},"÷":{"ha":814,"x_min":0,"x_max":678,"o":"m 678 475 l 678 339 l 0 339 l 0 475 l 678 475 m 407 746 l 407 610 l 271 610 l 271 746 l 407 746 m 407 203 l 407 68 l 271 68 l 271 203 l 407 203 z "},"◊":{"ha":949,"x_min":0,"x_max":814,"o":"m 814 339 l 407 -271 l 0 339 l 407 949 l 814 339 m 136 340 l 418 -68 l 678 340 l 403 746 l 136 340 z "},"ÿ":{"ha":814,"x_min":0,"x_max":678,"o":"m 203 677 l 203 136 l 475 136 l 475 677 l 678 677 l 678 -136 q 543 -271 678 -271 l 0 -271 l 0 -136 l 475 -136 l 475 0 l 136 0 q 0 136 0 0 l 0 677 l 203 677 m 203 949 l 203 814 l 0 814 l 0 949 l 203 949 m 678 949 l 678 814 l 475 814 l 475 949 l 678 949 z "},"Ÿ":{"ha":882,"x_min":0,"x_max":746,"o":"m 203 814 l 203 543 q 370 478 285 478 q 543 543 454 478 l 543 814 l 746 814 l 746 543 q 475 339 746 407 l 475 0 l 271 0 l 271 339 q 0 543 0 407 l 0 814 l 203 814 m 237 1085 l 237 949 l 34 949 l 34 1085 l 237 1085 m 712 1085 l 712 949 l 509 949 l 509 1085 l 712 1085 z "},"⁄":{"ha":678,"x_min":0,"x_max":543,"o":"m 543 814 l 136 0 l 0 0 l 407 814 l 543 814 z "},"¤":{"ha":675,"x_min":0,"x_max":540,"o":"m 68 521 l 0 589 l 86 681 l 157 610 q 212 633 184 625 q 269 640 241 640 q 328 633 299 640 q 383 610 356 625 l 452 680 l 539 592 l 471 524 q 492 469 485 497 q 500 410 500 440 q 492 352 500 380 q 471 297 485 324 l 540 229 l 454 140 l 383 210 q 329 188 357 196 q 270 180 300 180 q 213 188 241 180 q 158 210 185 195 l 91 142 l 3 229 l 70 297 q 48 352 56 324 q 41 410 41 380 q 47 468 41 440 q 68 521 54 495 m 165 410 q 196 336 165 367 q 270 306 227 306 q 344 336 313 306 q 375 410 375 367 q 344 484 375 454 q 270 515 313 515 q 196 484 227 515 q 165 410 165 454 z "},"‹":{"ha":475,"x_min":0,"x_max":339,"o":"m 339 678 l 136 407 l 339 136 l 203 136 l 0 407 l 203 678 l 339 678 z "},"›":{"ha":475,"x_min":0,"x_max":339,"o":"m 136 678 l 339 407 l 136 136 l 0 136 l 203 407 l 0 678 l 136 678 z "},"ﬁ":{"ha":1017,"x_min":0,"x_max":882,"o":"m 543 949 l 543 814 l 339 814 l 339 678 l 543 678 l 543 543 l 339 543 l 339 0 l 136 0 l 136 543 l 0 543 l 0 678 l 136 678 l 136 814 q 271 949 136 949 l 543 949 m 882 678 l 882 0 l 678 0 l 678 678 l 882 678 m 882 949 l 882 814 l 678 814 l 678 949 l 882 949 z "},"ﬂ":{"ha":1017,"x_min":0,"x_max":882,"o":"m 543 949 l 543 814 l 339 814 l 339 678 l 543 678 l 543 543 l 339 543 l 339 0 l 136 0 l 136 543 l 0 543 l 0 678 l 136 678 l 136 814 q 271 949 136 949 l 543 949 m 882 949 l 882 0 l 678 0 l 678 949 l 882 949 z "},"‡":{"ha":882,"x_min":0,"x_max":746,"o":"m 271 543 l 0 543 l 0 678 l 271 678 l 271 949 l 475 949 l 475 678 l 746 678 l 746 543 l 475 543 l 475 136 l 746 136 l 746 0 l 475 0 l 475 -271 l 271 -271 l 271 0 l 0 0 l 0 136 l 271 136 l 271 543 z "},"·":{"ha":339,"x_min":0,"x_max":203,"o":"m 203 475 l 203 339 l 0 339 l 0 475 l 203 475 z "},"‚":{"ha":339,"x_min":0,"x_max":203,"o":"m 203 136 l 203 0 l 136 -136 l 68 -136 l 68 0 l 0 0 l 0 136 l 203 136 z "},"„":{"ha":678,"x_min":0,"x_max":543,"o":"m 203 136 l 203 0 l 136 -136 l 68 -136 l 68 0 l 0 0 l 0 136 l 203 136 m 543 136 l 543 0 l 475 -136 l 407 -136 l 407 0 l 339 0 l 339 136 l 543 136 z "},"‰":{"ha":2102,"x_min":0,"x_max":1967,"o":"m 814 407 q 949 543 814 543 l 1221 543 q 1356 407 1356 543 l 1356 136 q 1221 0 1356 0 l 949 0 q 814 136 814 0 l 814 407 m 983 407 l 983 136 l 1187 136 l 1187 407 l 983 407 m 949 814 l 543 0 l 407 0 l 814 814 l 949 814 m 0 678 q 136 814 0 814 l 407 814 q 543 678 543 814 l 543 407 q 407 271 543 271 l 136 271 q 0 407 0 271 l 0 678 m 170 678 l 170 407 l 373 407 l 373 678 l 170 678 m 1424 407 q 1560 543 1424 543 l 1831 543 q 1967 407 1967 543 l 1967 136 q 1831 0 1967 0 l 1560 0 q 1424 136 1424 0 l 1424 407 m 1594 407 l 1594 136 l 1797 136 l 1797 407 l 1594 407 z "},"Â":{"ha":882,"x_min":0,"x_max":746,"o":"m 610 814 q 746 678 746 814 l 746 0 l 543 0 l 543 271 l 203 271 l 203 0 l 0 0 l 0 678 q 136 814 0 814 l 610 814 m 203 678 l 203 407 l 543 407 l 543 678 l 203 678 m 441 1153 l 644 882 l 509 882 l 373 1017 l 237 882 l 102 882 l 305 1153 l 441 1153 z "},"Ê":{"ha":882,"x_min":0,"x_max":746,"o":"m 746 814 l 746 678 l 203 678 l 203 475 l 610 475 l 610 339 l 203 339 l 203 136 l 746 136 l 746 0 l 136 0 q 0 136 0 0 l 0 678 q 136 814 0 814 l 746 814 m 441 1153 l 644 882 l 509 882 l 373 1017 l 237 882 l 102 882 l 305 1153 l 441 1153 z "},"Á":{"ha":882,"x_min":0,"x_max":746,"o":"m 610 814 q 746 678 746 814 l 746 0 l 543 0 l 543 271 l 203 271 l 203 0 l 0 0 l 0 678 q 136 814 0 814 l 610 814 m 203 678 l 203 407 l 543 407 l 543 678 l 203 678 m 351 1153 l 554 1153 l 418 882 l 283 882 l 351 1153 z "},"Ë":{"ha":882,"x_min":0,"x_max":746,"o":"m 746 814 l 746 678 l 203 678 l 203 475 l 610 475 l 610 339 l 203 339 l 203 136 l 746 136 l 746 0 l 136 0 q 0 136 0 0 l 0 678 q 136 814 0 814 l 746 814 m 237 1085 l 237 949 l 34 949 l 34 1085 l 237 1085 m 712 1085 l 712 949 l 509 949 l 509 1085 l 712 1085 z "},"È":{"ha":882,"x_min":0,"x_max":746,"o":"m 746 814 l 746 678 l 203 678 l 203 475 l 610 475 l 610 339 l 203 339 l 203 136 l 746 136 l 746 0 l 136 0 q 0 136 0 0 l 0 678 q 136 814 0 814 l 746 814 m 463 882 l 328 882 l 192 1153 l 395 1153 l 463 882 z "},"Í":{"ha":418,"x_min":0,"x_max":283,"o":"m 203 814 l 203 0 l 0 0 l 0 814 l 203 814 m 79 1153 l 283 1153 l 147 882 l 12 882 l 79 1153 z "},"Î":{"ha":678,"x_min":0,"x_max":543,"o":"m 373 814 l 373 0 l 170 0 l 170 814 l 373 814 m 339 1153 l 543 882 l 407 882 l 271 1017 l 136 882 l 0 882 l 203 1153 l 339 1153 z "},"Ï":{"ha":814,"x_min":0,"x_max":678,"o":"m 441 814 l 441 0 l 237 0 l 237 814 l 441 814 m 203 1085 l 203 949 l 0 949 l 0 1085 l 203 1085 m 678 1085 l 678 949 l 475 949 l 475 1085 l 678 1085 z "},"Ì":{"ha":418,"x_min":0,"x_max":283,"o":"m 283 814 l 283 0 l 79 0 l 79 814 l 283 814 m 271 882 l 136 882 l 0 1153 l 203 1153 l 271 882 z "},"Ó":{"ha":882,"x_min":0,"x_max":746,"o":"m 0 678 q 136 814 0 814 l 610 814 q 746 678 746 814 l 746 136 q 610 0 746 0 l 136 0 q 0 136 0 0 l 0 678 m 203 678 l 203 136 l 543 136 l 543 678 l 203 678 m 351 1153 l 554 1153 l 418 882 l 283 882 l 351 1153 z "},"Ô":{"ha":882,"x_min":0,"x_max":746,"o":"m 0 678 q 136 814 0 814 l 610 814 q 746 678 746 814 l 746 136 q 610 0 746 0 l 136 0 q 0 136 0 0 l 0 678 m 203 678 l 203 136 l 543 136 l 543 678 l 203 678 m 441 1153 l 644 882 l 509 882 l 373 1017 l 237 882 l 102 882 l 305 1153 l 441 1153 z "},"Ò":{"ha":882,"x_min":0,"x_max":746,"o":"m 0 678 q 136 814 0 814 l 610 814 q 746 678 746 814 l 746 136 q 610 0 746 0 l 136 0 q 0 136 0 0 l 0 678 m 203 678 l 203 136 l 543 136 l 543 678 l 203 678 m 463 882 l 328 882 l 192 1153 l 395 1153 l 463 882 z "},"Ú":{"ha":882,"x_min":0,"x_max":746,"o":"m 203 817 l 203 136 l 543 136 l 543 817 l 746 817 l 746 136 q 610 0 746 0 l 136 0 q 0 136 0 0 l 0 817 l 203 817 m 351 1153 l 554 1153 l 418 882 l 283 882 l 351 1153 z "},"Û":{"ha":882,"x_min":0,"x_max":746,"o":"m 203 817 l 203 136 l 543 136 l 543 817 l 746 817 l 746 136 q 610 0 746 0 l 136 0 q 0 136 0 0 l 0 817 l 203 817 m 441 1153 l 644 882 l 509 882 l 373 1017 l 237 882 l 102 882 l 305 1153 l 441 1153 z "},"Ù":{"ha":882,"x_min":0,"x_max":746,"o":"m 203 817 l 203 136 l 543 136 l 543 817 l 746 817 l 746 136 q 610 0 746 0 l 136 0 q 0 136 0 0 l 0 817 l 203 817 m 463 882 l 328 882 l 192 1153 l 395 1153 l 463 882 z "},"ı":{"ha":339,"x_min":0,"x_max":203,"o":"m 203 678 l 203 0 l 0 0 l 0 678 l 203 678 z "},"ˆ":{"ha":678,"x_min":0,"x_max":543,"o":"m 339 949 l 543 678 l 407 678 l 271 814 l 136 678 l 0 678 l 203 949 l 339 949 z "},"˜":{"ha":605,"x_min":0,"x_max":469,"o":"m 87 770 l 1 770 q 0 794 0 785 q 35 904 0 865 q 123 942 69 942 q 168 937 147 942 q 242 908 188 932 q 326 884 296 884 q 362 897 348 884 q 381 943 377 911 l 469 943 q 435 812 469 851 q 349 772 401 772 q 303 777 326 772 q 225 805 288 781 q 134 829 163 829 q 100 815 113 829 q 87 770 88 802 z "},"˘":{"ha":678,"x_min":0,"x_max":543,"o":"m 136 949 q 271 814 136 814 q 407 949 407 814 l 543 949 q 271 678 543 678 q 0 949 0 678 l 136 949 z "},"˙":{"ha":339,"x_min":0,"x_max":203,"o":"m 203 949 l 203 814 l 0 814 l 0 949 l 203 949 z "},"˚":{"ha":537,"x_min":0,"x_max":401,"o":"m 201 949 q 343 890 284 949 q 401 747 401 831 q 343 603 401 663 q 201 544 284 544 q 59 603 117 544 q 0 747 0 663 q 59 890 0 831 q 201 949 117 949 m 201 848 q 130 819 159 848 q 100 747 100 789 q 130 675 100 705 q 201 646 159 646 q 272 675 242 646 q 301 747 301 705 q 272 819 301 789 q 201 848 242 848 z "},"¸":{"ha":407,"x_min":0,"x_max":271,"o":"m 0 -136 q 136 0 136 -136 l 136 136 l 271 136 l 271 0 q 0 -271 271 -271 l 0 -136 z "},"˝":{"ha":678,"x_min":0,"x_max":543,"o":"m 68 949 l 271 949 l 136 678 l 0 678 l 68 949 m 339 949 l 543 949 l 407 678 l 271 678 l 339 949 z "},"˛":{"ha":407,"x_min":0,"x_max":271,"o":"m 271 -271 q 0 0 0 -271 l 0 136 l 136 136 l 136 0 q 271 -136 136 -136 l 271 -271 z "},"ˇ":{"ha":678,"x_min":0,"x_max":543,"o":"m 203 678 l 0 949 l 136 949 l 271 814 l 407 949 l 543 949 l 339 678 l 203 678 z "},"Ł":{"ha":1017,"x_min":0,"x_max":882,"o":"m 136 814 l 339 814 l 339 543 l 441 644 l 509 576 l 339 407 l 339 136 l 882 136 l 882 0 l 271 0 q 136 136 136 0 l 136 271 l 54 190 l 0 271 l 136 407 l 136 814 z "},"ł":{"ha":644,"x_min":0,"x_max":509,"o":"m 136 814 l 339 814 l 339 543 l 441 644 l 509 576 l 339 407 l 339 68 l 136 68 l 136 271 l 54 190 l 0 271 l 136 407 l 136 814 z "},"Š":{"ha":882,"x_min":0,"x_max":746,"o":"m 0 0 l 0 136 l 543 136 l 543 305 l 136 373 q 0 509 0 373 l 0 678 q 136 814 0 814 l 746 814 l 746 678 l 203 678 l 203 509 l 610 441 q 746 305 746 441 l 746 136 q 610 0 746 0 l 0 0 m 305 882 l 102 1153 l 237 1153 l 373 1017 l 509 1153 l 644 1153 l 441 882 l 305 882 z "},"š":{"ha":814,"x_min":0,"x_max":678,"o":"m 0 0 l 0 136 l 475 136 l 475 237 l 136 305 q 0 441 0 305 l 0 543 q 136 678 0 678 l 678 678 l 678 543 l 203 543 l 203 441 l 543 373 q 678 237 678 373 l 678 136 q 543 0 678 0 l 0 0 m 271 746 l 68 1017 l 203 1017 l 339 882 l 475 1017 l 610 1017 l 407 746 l 271 746 z "},"Ž":{"ha":882,"x_min":0,"x_max":746,"o":"m 746 814 l 746 678 l 271 136 l 746 136 l 746 0 l 0 0 l 0 136 l 475 678 l 0 678 l 0 814 l 746 814 m 305 882 l 102 1153 l 237 1153 l 373 1017 l 509 1153 l 644 1153 l 441 882 l 305 882 z "},"ž":{"ha":814,"x_min":0,"x_max":678,"o":"m 678 678 l 678 543 l 271 136 l 678 136 l 678 0 l 0 0 l 0 136 l 407 543 l 0 543 l 0 678 l 678 678 m 271 746 l 68 1017 l 203 1017 l 339 882 l 475 1017 l 610 1017 l 407 746 l 271 746 z "},"¦":{"ha":271,"x_min":0,"x_max":136,"o":"m 136 949 l 136 407 l 0 407 l 0 949 l 136 949 m 136 271 l 136 -271 l 0 -271 l 0 271 l 136 271 z "},"Ð":{"ha":949,"x_min":0,"x_max":814,"o":"m 610 136 l 610 678 l 271 678 l 271 475 l 339 475 l 339 339 l 271 339 l 271 136 l 610 136 m 678 814 q 814 678 814 814 l 814 136 q 678 0 814 0 l 68 0 l 68 339 l 0 339 l 0 475 l 68 475 l 68 814 l 678 814 z "},"ð":{"ha":882,"x_min":0,"x_max":746,"o":"m 475 949 q 746 678 746 949 l 746 136 q 610 0 746 0 l 136 0 q 0 136 0 0 l 0 475 q 136 610 0 610 l 543 610 l 543 678 q 407 814 543 814 l 271 814 l 203 678 l 102 746 l 136 814 l 68 814 l 68 949 l 203 949 l 271 1085 l 387 1024 l 339 949 l 475 949 m 203 475 l 203 136 l 543 136 l 543 475 l 203 475 z "},"Ý":{"ha":882,"x_min":0,"x_max":746,"o":"m 203 814 l 203 543 q 370 478 285 478 q 543 543 454 478 l 543 814 l 746 814 l 746 543 q 475 339 746 407 l 475 0 l 271 0 l 271 339 q 0 543 0 407 l 0 814 l 203 814 m 368 1153 l 571 1153 l 435 882 l 300 882 l 368 1153 z "},"ý":{"ha":814,"x_min":0,"x_max":678,"o":"m 203 677 l 203 136 l 475 136 l 475 677 l 678 677 l 678 -136 q 543 -271 678 -271 l 0 -271 l 0 -136 l 475 -136 l 475 0 l 136 0 q 0 136 0 0 l 0 677 l 203 677 m 317 1017 l 520 1017 l 385 746 l 249 746 l 317 1017 z "},"Þ":{"ha":882,"x_min":0,"x_max":746,"o":"m 203 814 l 203 644 l 610 644 q 746 509 746 644 l 746 305 q 610 170 746 170 l 203 170 l 203 0 l 0 0 l 0 814 l 203 814 m 203 509 l 203 305 l 543 305 l 543 509 l 203 509 z "},"þ":{"ha":882,"x_min":0,"x_max":746,"o":"m 203 949 l 203 671 l 610 671 q 746 536 746 671 l 746 136 q 610 0 746 0 l 203 0 l 203 -271 l 0 -271 l 0 949 l 203 949 m 203 536 l 203 136 l 543 136 l 543 536 l 203 536 z "},"−":{"ha":678,"x_min":0,"x_max":543,"o":"m 543 475 l 543 339 l 0 339 l 0 475 l 543 475 z "},"×":{"ha":711,"x_min":0,"x_max":576,"o":"m 96 117 l 0 212 l 192 404 l 0 596 l 96 692 l 288 500 l 479 692 l 576 596 l 384 404 l 576 212 l 479 117 l 288 309 l 96 117 z "},"¹":{"ha":475,"x_min":0,"x_max":339,"o":"m 136 271 l 136 814 l 0 814 l 68 949 l 339 949 l 339 271 l 136 271 z "},"²":{"ha":746,"x_min":0,"x_max":610,"o":"m 475 949 q 610 814 610 949 l 610 793 q 475 610 610 677 q 203 475 203 477 l 203 407 l 610 407 l 610 271 l 0 271 l 0 475 q 136 610 0 551 l 407 746 l 407 814 l 0 814 l 0 949 l 475 949 z "},"³":{"ha":746,"x_min":0,"x_max":610,"o":"m 475 949 q 610 814 610 949 l 610 678 q 543 609 610 609 q 610 543 610 604 l 610 407 q 475 271 610 271 l 0 271 l 0 407 l 407 407 l 407 543 l 136 543 l 136 678 l 407 678 l 407 814 l 0 814 l 0 949 l 475 949 z "},"½":{"ha":1695,"x_min":0,"x_max":1560,"o":"m 949 814 l 543 0 l 407 0 l 814 814 l 949 814 m 136 136 l 136 678 l 0 678 l 68 814 l 339 814 l 339 136 l 136 136 m 1424 678 q 1560 543 1560 678 l 1560 522 q 1424 339 1560 406 q 1153 203 1153 206 l 1153 136 l 1560 136 l 1560 0 l 949 0 l 949 203 q 1085 339 949 279 l 1356 475 l 1356 543 l 949 543 l 949 678 l 1424 678 z "},"¼":{"ha":1628,"x_min":0,"x_max":1492,"o":"m 949 814 l 543 0 l 407 0 l 814 814 l 949 814 m 1187 543 l 1153 543 l 990 339 l 990 271 l 1187 271 l 1187 543 m 814 136 l 814 339 l 1085 678 l 1390 678 l 1390 271 l 1492 271 l 1492 136 l 1390 136 l 1390 0 l 1187 0 l 1187 136 l 814 136 m 136 136 l 136 678 l 0 678 l 68 814 l 339 814 l 339 136 l 136 136 z "},"¾":{"ha":1831,"x_min":0,"x_max":1695,"o":"m 475 814 q 610 678 610 814 l 610 543 q 543 473 610 473 q 610 407 610 469 l 610 271 q 475 136 610 136 l 0 136 l 0 271 l 407 271 l 407 407 l 136 407 l 136 543 l 407 543 l 407 678 l 0 678 l 0 814 l 475 814 m 1153 814 l 746 0 l 610 0 l 1017 814 l 1153 814 m 1390 543 l 1356 543 l 1194 339 l 1194 271 l 1390 271 l 1390 543 m 1017 136 l 1017 339 l 1289 678 l 1594 678 l 1594 271 l 1695 271 l 1695 136 l 1594 136 l 1594 0 l 1390 0 l 1390 136 l 1017 136 z "},"€":{"ha":1017,"x_min":0,"x_max":882,"o":"m 882 136 l 882 0 l 203 0 q 68 136 68 0 l 68 237 l 0 237 l 0 373 l 68 373 l 68 441 l 0 441 l 0 576 l 68 576 l 68 678 q 203 814 68 814 l 882 814 l 882 678 l 339 678 l 339 576 l 678 576 l 678 441 l 339 441 l 339 373 l 543 373 l 543 237 l 339 237 l 339 136 l 882 136 z "},"":{"ha":1262,"x_min":0,"x_max":1126,"o":"m 7 616 q 108 423 7 504 q 248 377 173 377 q 477 544 410 377 q 490 622 490 581 q 333 844 490 770 q 245 861 294 857 q 33 727 116 861 q 7 616 7 665 m 255 848 q 464 697 395 848 q 477 622 477 662 l 477 606 q 356 416 477 492 q 261 391 308 391 l 245 391 q 33 544 96 391 q 20 619 20 574 q 151 825 20 754 q 255 848 191 848 m 45 619 q 205 420 45 475 l 252 416 q 448 576 392 416 l 451 622 q 307 812 451 753 l 248 821 q 62 694 123 821 q 45 619 52 675 m 562 818 l 562 397 l 653 397 l 653 593 l 660 600 l 728 600 l 728 652 l 660 652 l 653 658 l 653 756 l 660 763 l 738 763 l 738 818 l 562 818 m 751 818 l 751 397 l 823 397 l 823 612 l 829 612 l 878 397 l 937 397 q 983 609 945 397 l 989 609 l 989 397 l 1074 397 l 1074 818 l 947 818 l 947 815 l 914 609 l 908 609 l 869 818 l 751 818 m 255 808 q 425 688 368 808 q 437 632 437 661 l 437 609 q 294 433 437 488 l 258 429 l 239 429 q 65 570 117 429 l 59 616 l 59 622 q 199 802 59 749 l 255 808 m 137 697 l 137 524 l 196 524 l 196 635 l 199 635 l 313 524 l 369 524 l 369 697 l 311 697 l 311 586 l 307 586 l 193 697 l 137 697 m 0 315 l 0 175 l 45 175 l 45 263 l 49 263 l 144 175 l 189 175 l 189 315 l 144 315 l 144 227 l 140 227 l 43 315 l 0 315 m 219 315 l 219 175 l 264 175 l 264 315 l 219 315 m 291 315 l 291 175 l 336 175 l 336 227 l 343 233 l 454 233 l 480 260 l 480 289 l 454 315 l 291 315 m 509 289 l 509 201 l 536 175 l 696 175 l 673 197 l 562 197 l 555 204 l 555 286 l 562 292 l 673 292 l 696 315 l 536 315 l 509 289 m 725 289 l 725 201 l 751 175 l 911 175 l 888 197 l 777 197 l 771 204 l 771 227 l 777 233 l 885 233 l 862 256 l 777 256 l 771 263 l 771 286 l 777 292 l 888 292 l 911 315 l 751 315 l 725 289 m 937 315 l 937 175 l 983 175 l 983 263 l 986 263 l 1081 175 l 1126 175 l 1126 315 l 1081 315 l 1081 227 l 1078 227 l 980 315 l 937 315 m 343 292 l 428 292 l 435 286 l 435 263 l 428 256 l 343 256 l 336 263 l 336 286 l 343 292 m 13 136 l 13 96 l 20 96 q 33 116 20 116 l 36 116 l 36 119 q 20 125 20 119 q 36 132 20 132 l 36 136 l 13 136 m 92 125 l 92 106 l 101 96 l 111 96 q 124 119 124 102 q 111 136 117 134 l 101 136 l 92 125 m 180 136 l 180 96 l 186 96 l 186 119 l 193 119 q 205 96 199 96 l 205 136 l 203 136 l 203 113 l 196 113 l 189 136 l 180 136 m 264 136 l 264 132 q 277 109 277 132 l 277 96 l 281 96 q 291 132 281 132 l 294 132 l 294 136 l 264 136 m 349 136 l 349 96 l 356 96 l 356 116 l 363 116 l 363 106 l 369 106 l 372 123 l 379 123 l 379 96 l 382 96 l 382 136 l 379 136 q 369 116 372 136 l 363 116 q 353 136 363 133 l 349 136 m 437 96 l 444 96 q 451 109 444 109 l 454 109 q 464 96 464 109 l 467 96 l 467 100 l 457 136 l 454 136 q 437 96 448 136 m 526 132 l 526 123 l 545 109 l 545 106 l 539 100 l 532 100 l 529 103 l 526 103 l 526 96 l 542 96 l 549 103 l 549 116 q 529 125 532 116 l 536 132 l 542 132 l 545 129 l 549 129 l 549 136 l 542 136 l 526 132 m 604 136 l 604 132 q 617 109 617 132 l 617 96 l 621 96 q 630 132 621 132 l 633 132 l 633 136 l 604 136 m 689 136 l 689 96 l 712 96 l 712 100 q 696 106 696 100 l 696 109 q 712 116 696 116 l 712 119 q 696 125 696 119 q 712 132 696 132 l 712 136 l 689 136 m 771 136 l 771 96 l 777 96 q 784 113 777 113 q 797 96 790 98 l 800 96 l 790 109 l 793 129 l 787 136 l 771 136 m 924 136 l 928 132 l 928 103 l 924 100 l 924 96 l 937 96 l 934 100 l 934 129 l 937 132 l 937 136 l 924 136 m 996 136 l 996 96 l 1002 96 l 1002 119 l 1009 119 q 1022 96 1016 96 l 1022 136 l 1019 136 l 1019 113 l 1013 113 l 1006 136 l 996 136 m 1084 125 l 1084 106 l 1094 96 l 1110 96 l 1110 103 l 1107 100 l 1097 100 l 1088 109 l 1088 123 l 1097 132 l 1104 132 l 1107 129 l 1110 129 l 1110 136 l 1094 136 l 1084 125 m 104 132 l 115 132 l 117 116 l 117 109 l 108 100 l 104 100 l 95 109 l 95 123 l 104 132 m 784 132 l 790 125 l 790 123 l 784 116 l 777 123 l 777 125 l 784 132 m 457 123 l 457 119 l 451 113 l 448 116 l 448 119 l 451 123 l 457 123 m 327 80 l 327 47 l 336 47 l 343 54 l 343 64 q 330 73 343 68 l 330 80 l 327 80 m 421 80 l 415 71 l 418 47 l 421 47 q 428 71 421 63 l 421 77 l 428 77 l 428 80 l 421 80 m 647 80 l 647 47 l 650 47 l 650 80 l 647 80 m 781 80 l 774 71 l 777 47 l 781 47 q 787 71 781 63 l 781 77 l 787 77 l 787 80 l 781 80 m 212 77 l 205 54 l 209 54 q 222 47 222 54 l 225 47 l 225 51 q 212 77 217 77 m 239 77 l 239 47 l 241 47 l 241 60 l 248 60 l 248 54 l 252 54 l 252 60 l 258 60 l 258 47 l 261 47 l 261 77 l 255 77 q 248 64 255 64 l 245 77 l 239 77 m 444 77 l 441 73 l 441 67 q 454 60 441 60 l 454 51 l 441 51 l 441 47 l 454 47 l 457 51 l 457 57 q 444 64 457 64 l 444 73 l 457 73 l 457 77 l 444 77 m 464 77 l 464 47 l 467 47 l 467 60 l 473 60 l 473 54 l 477 54 l 477 60 l 484 60 l 484 47 l 487 47 l 487 77 l 480 77 q 473 64 480 64 l 470 77 l 464 77 m 506 77 l 503 60 l 506 64 l 509 64 l 513 60 l 513 67 l 509 77 l 506 77 m 529 67 l 529 57 l 539 47 l 545 47 l 545 51 q 532 57 532 51 l 532 67 l 539 73 l 542 73 l 545 71 l 549 71 l 549 77 l 539 77 l 529 67 m 597 77 l 597 71 l 594 71 l 597 67 l 597 47 l 608 47 l 601 57 l 601 60 l 608 71 l 597 77 m 800 77 l 800 47 l 804 47 l 804 64 l 810 64 q 820 47 812 47 l 820 77 l 817 77 l 817 64 l 810 64 l 807 77 l 800 77 m 859 67 l 859 57 l 869 47 l 876 47 l 876 51 q 862 57 862 51 l 862 67 l 869 73 l 872 73 l 876 71 l 878 71 l 878 77 l 869 77 l 859 67 m 493 73 l 493 67 l 496 47 l 503 47 l 503 54 l 496 73 l 493 73 m 519 73 l 513 47 l 519 47 l 523 67 l 523 73 l 519 73 m 268 64 l 268 54 l 275 47 l 281 47 l 281 51 l 271 51 q 284 57 271 57 l 284 64 l 277 71 l 275 71 l 268 64 m 291 71 l 291 47 l 294 47 q 300 67 294 67 l 304 67 l 304 47 l 307 47 l 307 67 l 304 71 l 291 71 m 311 71 l 311 67 l 317 67 l 317 47 l 320 47 l 320 67 l 317 71 l 311 71 m 349 64 l 349 54 l 356 47 l 363 47 l 363 51 l 353 51 q 366 57 353 57 l 366 64 l 359 71 l 356 71 l 349 64 m 372 71 l 372 47 l 376 47 q 382 71 376 63 l 372 71 m 395 64 l 395 54 l 401 47 l 405 47 l 412 54 l 412 64 l 405 71 l 401 71 l 395 64 m 552 64 l 552 54 l 559 47 l 565 47 l 565 51 l 555 51 q 568 57 555 57 l 568 64 l 562 71 l 559 71 l 552 64 m 575 71 l 575 47 l 578 47 q 585 67 578 67 l 588 67 l 588 47 l 591 47 l 591 67 l 588 71 l 575 71 m 611 71 l 611 47 l 614 47 q 621 71 614 63 l 611 71 m 624 71 l 624 67 l 637 67 q 627 60 637 60 l 624 57 l 624 47 l 640 47 l 640 64 l 633 71 l 624 71 m 666 71 l 666 51 l 669 47 l 683 47 l 683 71 l 680 71 q 673 51 680 51 l 669 51 l 669 71 l 666 71 m 692 71 l 689 67 l 689 64 q 699 57 689 57 l 699 51 l 689 51 l 689 47 l 699 47 l 702 51 l 702 54 q 692 60 702 60 l 692 67 l 702 67 l 702 71 l 692 71 m 709 64 l 709 54 l 715 47 l 722 47 l 722 51 l 712 51 q 725 57 712 57 l 725 64 l 718 71 l 715 71 l 709 64 m 732 71 l 732 47 l 735 47 q 741 71 735 63 l 732 71 m 754 64 l 754 54 l 761 47 l 764 47 l 771 54 l 771 64 l 764 71 l 761 71 l 754 64 m 826 71 l 826 47 l 829 47 l 829 71 l 826 71 m 836 71 l 836 41 l 852 54 l 852 64 l 846 71 l 836 71 m 882 64 l 882 54 l 888 47 l 895 47 l 895 51 l 885 51 q 898 57 885 57 l 898 64 l 892 71 l 888 71 l 882 64 m 905 71 l 905 47 l 908 47 q 914 67 908 67 l 918 67 l 918 47 l 921 47 l 921 67 l 918 71 l 905 71 m 216 67 l 219 64 l 219 60 l 216 57 l 212 57 l 209 60 l 209 64 l 212 67 l 216 67 m 271 67 l 281 67 l 275 60 l 271 64 l 271 67 m 336 67 l 340 67 l 340 57 l 333 51 l 330 54 l 330 60 l 336 67 m 353 67 l 363 67 l 356 60 l 353 64 l 353 67 m 399 67 l 408 67 l 408 51 l 399 51 l 399 67 m 555 67 l 565 67 l 559 60 l 555 64 l 555 67 m 712 67 l 722 67 l 715 60 l 712 64 l 712 67 m 758 67 l 768 67 l 768 51 l 758 51 l 758 67 m 846 67 l 849 67 l 849 57 l 842 51 l 840 54 l 840 60 l 846 67 m 885 67 l 895 67 l 888 60 l 885 64 l 885 67 m 627 57 l 633 57 l 633 51 l 627 57 m 304 31 l 300 15 l 300 8 l 304 -8 l 311 -8 l 304 1 l 304 21 l 311 31 l 304 31 m 320 28 l 317 24 l 317 18 q 330 12 317 12 l 330 1 l 317 1 l 317 -1 l 330 -1 l 333 1 l 333 8 q 320 15 333 15 l 320 24 l 333 24 l 333 28 l 320 28 m 340 28 l 340 -1 l 343 -1 l 343 12 l 349 12 l 349 5 l 353 5 l 353 12 l 359 12 l 359 -1 l 363 -1 l 363 28 l 356 28 q 349 15 356 15 l 346 28 l 340 28 m 382 28 l 379 12 l 382 15 l 385 15 l 389 12 l 389 18 l 385 28 l 382 28 m 405 18 l 405 8 l 415 -1 l 421 -1 l 421 1 q 408 8 408 1 l 408 18 q 418 24 408 24 l 428 21 l 428 -1 l 431 -1 l 431 15 l 437 15 q 448 -1 440 -1 l 448 28 l 444 28 l 444 15 l 437 15 l 435 28 l 431 28 l 428 24 l 425 28 l 415 28 l 405 18 m 454 18 l 454 8 l 464 -1 l 470 -1 l 470 1 q 457 8 457 1 l 457 18 l 464 24 l 467 24 l 470 21 l 473 21 l 473 28 l 464 28 l 454 18 m 480 28 l 484 12 l 480 -1 l 480 -5 l 484 -5 l 487 12 l 484 28 l 480 28 m 614 28 l 608 5 l 611 5 q 624 -1 624 5 l 627 -1 l 627 1 q 614 28 619 28 m 718 28 l 718 21 l 715 21 l 718 18 l 718 -1 l 728 -1 l 722 8 l 722 12 l 728 21 l 718 28 m 741 28 l 741 24 l 754 24 l 754 18 l 741 1 l 741 -1 l 758 -1 l 758 1 l 748 1 l 748 5 l 758 18 l 758 21 l 751 28 l 741 28 m 764 21 l 764 5 l 771 -1 l 774 -1 l 781 5 l 781 21 l 774 28 l 771 28 l 764 21 m 787 21 l 787 5 l 793 -1 l 797 -1 l 800 1 l 804 12 l 807 12 l 817 8 l 817 1 l 810 1 l 810 -1 l 817 -1 l 823 8 l 823 21 l 817 28 l 813 28 l 804 21 l 797 28 l 793 28 l 787 21 m 369 24 l 369 18 l 372 -1 l 379 -1 l 379 5 l 372 24 l 369 24 m 395 24 l 389 -1 l 395 -1 l 399 18 l 399 24 l 395 24 m 506 21 l 503 18 l 503 15 q 513 8 503 8 l 513 1 l 503 1 l 503 -1 l 513 -1 l 516 1 l 516 5 q 506 12 516 12 l 506 18 l 516 18 l 516 21 l 506 21 m 523 21 l 523 -1 l 526 -1 l 526 21 l 523 21 m 532 21 l 532 -1 l 536 -1 q 542 18 536 18 l 545 18 l 545 -1 l 549 -1 l 549 18 l 545 21 l 532 21 m 559 21 l 555 18 l 555 5 l 562 -1 l 568 -1 l 568 1 l 559 1 l 559 18 l 568 18 l 568 21 l 559 21 m 575 15 l 575 5 l 581 -1 l 588 -1 l 588 1 l 578 1 q 591 8 578 8 l 591 15 l 585 21 l 581 21 l 575 15 m 630 21 l 630 1 l 633 -1 l 647 -1 l 647 21 l 644 21 q 637 1 644 1 l 633 1 l 633 21 l 630 21 m 653 15 l 653 12 l 656 -5 l 653 -8 l 663 -8 l 669 -1 l 669 21 l 660 21 l 653 15 m 676 21 l 676 1 l 680 -1 l 692 -1 l 692 21 l 689 21 q 683 1 689 1 l 680 1 l 680 21 l 676 21 m 702 21 l 699 18 l 699 15 q 709 8 699 8 l 709 1 l 699 1 l 699 -1 l 709 -1 l 712 1 l 712 5 q 702 12 712 12 l 702 18 l 712 18 l 712 21 l 702 21 m 768 24 l 777 24 l 777 1 l 768 1 l 768 24 m 790 24 l 800 24 l 800 1 l 790 1 l 790 24 m 810 24 l 813 24 l 820 18 l 813 12 l 810 12 l 810 24 m 578 18 l 588 18 l 581 12 l 578 15 l 578 18 m 617 18 l 621 15 l 621 12 l 617 8 l 614 8 l 611 12 l 611 15 l 614 18 l 617 18 m 656 18 l 660 18 l 666 12 l 666 8 l 660 1 l 656 1 l 656 18 z "},"":{"ha":727,"x_min":0,"x_max":591,"o":"m 465 809 l 465 809 l 469 804 l 459 729 l 460 730 l 465 730 q 467 720 467 730 l 460 691 q 467 687 465 691 l 467 683 l 454 655 q 458 652 458 655 l 458 649 q 438 607 458 642 l 429 583 q 441 578 437 578 l 444 580 l 446 580 q 450 574 448 580 q 458 565 458 572 l 457 564 q 465 553 465 559 l 463 551 q 467 532 467 541 l 467 524 l 465 509 q 471 502 468 503 l 471 502 q 486 523 475 513 l 486 523 q 488 517 488 523 l 490 517 q 513 523 503 523 l 520 523 q 522 518 522 523 q 536 504 536 516 l 541 500 q 578 530 554 519 l 585 530 q 591 515 591 526 q 562 480 587 503 q 534 448 562 468 l 530 448 q 511 427 522 427 l 511 427 q 490 417 494 417 l 490 417 l 486 419 l 471 415 l 469 416 l 469 416 q 450 392 452 416 l 450 387 q 458 360 450 382 l 459 355 l 456 354 l 459 330 q 455 322 458 322 l 454 323 l 453 323 q 446 300 453 305 l 444 300 l 441 302 q 423 288 433 288 l 419 283 q 435 257 423 273 l 435 255 l 433 252 q 439 237 439 245 l 436 234 l 438 224 l 434 222 l 434 213 q 422 187 427 209 l 418 150 l 418 144 l 417 143 l 418 142 l 418 141 l 417 140 l 418 138 l 418 138 l 417 136 l 418 136 l 418 134 l 417 134 l 421 102 l 422 102 q 444 109 422 106 l 448 109 q 457 104 454 109 q 473 109 465 109 q 482 102 479 107 q 488 99 488 102 l 486 94 q 492 90 492 92 q 486 87 492 87 q 498 81 488 84 l 499 80 l 499 79 q 492 75 499 77 q 457 62 480 62 l 433 62 l 416 60 q 398 87 402 60 l 392 195 l 393 205 l 392 216 l 395 245 q 379 267 389 250 l 367 264 l 366 269 l 347 269 q 315 228 326 237 q 321 143 320 228 l 320 140 l 321 130 l 321 96 l 320 79 q 345 66 328 79 l 354 66 q 379 50 379 60 q 383 46 383 49 l 383 45 q 361 37 376 37 l 342 46 l 337 45 l 337 44 l 343 27 l 343 24 q 333 8 343 15 q 331 5 333 5 l 330 5 l 327 8 l 326 7 l 321 7 q 316 16 316 10 l 316 19 l 317 37 l 312 37 l 307 36 l 307 35 q 311 25 307 31 l 311 14 q 298 2 311 5 l 297 2 l 296 3 l 295 3 l 292 0 l 290 0 q 279 10 279 5 l 279 14 l 287 34 l 285 36 q 272 16 279 36 q 249 3 262 3 l 245 2 l 245 2 l 239 9 l 239 16 q 258 41 239 30 q 272 55 266 41 q 293 71 283 67 q 278 171 293 99 q 273 182 278 180 l 272 189 l 272 197 q 268 206 268 197 l 268 211 q 264 213 264 211 l 264 214 q 292 264 267 224 l 291 264 l 270 262 q 218 243 242 243 l 203 243 l 203 243 l 201 243 q 171 210 171 218 q 121 172 147 186 q 94 145 94 151 q 83 96 83 117 q 86 94 86 96 l 85 90 l 103 94 q 134 113 124 112 l 134 113 l 136 111 l 136 109 l 136 107 l 136 106 l 143 106 q 161 99 156 106 l 161 98 q 155 96 161 96 l 155 94 l 161 87 l 166 88 l 176 88 l 180 85 l 180 83 q 176 81 180 81 l 176 80 q 190 64 190 75 l 190 59 q 193 57 193 59 l 193 54 q 170 43 183 46 q 166 37 170 39 l 149 37 q 134 29 144 29 l 134 26 q 126 18 134 18 l 115 18 l 107 20 q 96 13 104 13 q 31 29 80 13 q 8 50 8 35 l 0 84 q 18 138 0 94 l 19 144 l 17 146 q 22 159 17 153 l 20 162 q 33 178 20 168 l 31 180 l 31 180 q 42 189 37 189 l 41 190 l 41 191 q 69 201 44 195 q 122 257 83 212 q 134 277 134 273 q 130 279 130 277 l 130 286 l 132 289 q 130 292 130 289 q 136 304 130 295 l 134 307 l 134 309 q 144 317 141 317 l 142 320 l 142 322 q 147 326 142 325 q 128 337 140 337 l 109 337 l 107 339 l 107 340 l 109 343 l 109 343 l 85 339 l 84 345 l 55 335 l 54 335 l 52 336 l 52 339 l 55 342 l 54 342 q 31 323 49 341 l 28 323 l 27 325 l 27 329 q 61 371 27 345 q 56 373 56 371 q 66 378 58 378 l 92 378 l 90 379 l 90 380 l 94 383 q 120 377 106 383 q 122 381 120 381 q 141 367 130 379 q 144 374 141 374 l 145 374 q 153 352 148 374 l 164 332 q 174 335 168 335 l 180 335 q 233 322 194 335 l 275 338 l 307 353 q 310 351 307 351 l 319 354 l 325 353 q 342 359 338 359 l 343 358 l 343 357 q 381 366 361 366 l 387 366 l 388 364 l 389 364 q 398 390 398 377 l 398 393 l 397 393 q 367 378 384 383 q 357 372 367 372 q 340 375 345 373 q 338 372 340 372 l 337 372 q 321 380 334 372 l 320 379 l 319 379 q 307 393 307 385 l 304 391 l 302 391 l 300 393 l 300 408 q 296 411 296 408 q 299 431 296 419 l 298 429 l 297 429 l 295 432 q 306 455 295 439 q 302 457 302 455 q 326 480 302 467 q 341 488 326 487 l 350 488 q 366 551 360 492 q 320 614 349 583 l 320 618 q 327 620 320 620 l 327 621 l 304 651 l 299 668 l 299 669 q 304 672 299 672 q 290 716 290 703 l 290 718 q 296 720 290 720 l 287 762 l 283 785 l 283 798 q 287 804 284 804 l 292 804 q 309 772 295 802 q 320 741 315 759 q 355 684 345 716 l 359 674 l 360 674 q 362 679 360 679 q 368 668 366 679 l 367 637 l 367 623 l 366 611 q 379 576 370 587 l 390 583 l 389 590 l 389 601 q 396 614 389 607 l 398 611 l 398 609 l 395 593 l 395 591 l 397 591 q 409 601 401 601 l 410 601 l 410 600 l 406 595 l 409 593 l 409 591 l 406 588 l 413 588 l 413 593 q 396 671 413 614 l 396 674 q 402 696 397 696 l 404 696 l 406 694 q 442 751 406 705 q 465 809 458 809 m 421 672 l 422 669 l 421 646 l 421 607 q 427 584 421 584 l 427 584 q 448 631 435 608 l 456 648 l 456 651 l 455 652 l 455 653 l 446 648 l 446 649 l 446 650 q 465 683 450 650 l 465 686 l 461 689 q 454 682 459 689 l 453 683 q 465 721 458 688 l 465 723 l 465 728 q 457 721 457 728 l 455 721 q 467 804 467 793 l 465 807 q 441 741 457 799 q 421 672 421 690 m 286 800 l 286 792 q 297 729 286 769 l 302 706 l 300 706 q 295 718 298 718 l 292 718 l 292 716 q 311 665 292 701 l 309 665 q 304 670 309 668 l 302 670 l 302 667 q 325 628 304 649 q 331 616 331 619 l 330 616 l 323 618 l 322 618 q 345 589 322 612 l 362 563 l 366 555 l 368 555 l 368 561 q 357 604 360 601 q 342 666 352 650 q 311 764 323 720 l 291 802 l 288 802 l 286 800 m 408 685 l 408 682 l 406 682 q 402 694 405 694 l 401 694 l 398 673 q 415 597 415 612 l 415 588 l 420 587 l 419 603 l 419 647 l 420 667 l 419 671 q 436 732 419 691 l 438 741 q 408 685 408 706 m 321 736 l 341 673 q 358 614 353 656 l 364 588 l 371 561 l 359 497 l 354 488 l 354 488 l 372 486 l 371 486 l 371 488 l 373 490 l 375 490 q 406 477 402 477 l 406 478 l 406 488 q 401 495 401 488 l 401 503 l 398 501 l 397 502 l 397 518 l 396 517 l 395 517 l 394 518 l 394 532 q 391 534 391 532 l 391 536 q 395 546 391 540 q 392 548 392 546 l 392 549 q 398 559 393 559 l 395 563 l 395 565 q 404 570 395 567 q 406 574 404 574 q 427 561 412 574 l 429 561 q 437 576 429 565 l 437 576 q 410 586 420 586 l 408 586 l 402 585 l 402 586 l 404 589 l 404 590 q 400 584 400 588 l 398 584 l 398 585 l 406 597 l 404 597 q 394 581 397 591 l 393 582 l 392 582 q 380 572 384 578 l 377 572 q 368 593 377 576 l 363 611 l 364 642 l 364 650 l 366 661 l 363 675 l 361 673 l 361 668 l 358 668 q 321 736 345 713 m 391 600 l 391 589 l 392 584 l 395 587 l 393 593 l 393 597 l 396 610 q 391 600 393 610 m 429 555 l 427 555 q 408 572 427 561 l 406 572 q 409 570 406 570 l 410 569 l 410 568 l 409 567 l 409 566 l 404 567 q 397 564 397 566 q 400 562 397 562 l 401 561 l 401 560 q 394 548 394 553 l 395 549 l 397 549 l 399 547 q 393 536 393 541 l 396 538 l 397 538 l 396 528 l 396 521 l 399 521 l 399 507 l 400 507 l 401 513 l 404 513 l 404 496 q 406 490 404 490 q 420 543 414 543 q 427 546 420 545 l 435 542 q 442 549 435 545 l 448 549 q 465 517 454 549 l 465 517 l 465 532 q 459 553 465 543 l 460 555 l 461 555 l 462 553 l 462 555 l 452 566 l 452 567 l 453 567 l 456 566 l 456 567 q 446 572 456 570 l 444 572 l 444 574 q 446 576 444 576 l 446 578 l 444 578 q 431 561 435 573 l 429 555 m 436 541 q 446 507 446 526 l 444 507 q 427 544 440 541 q 408 476 413 544 l 415 475 l 417 475 l 417 482 l 419 484 l 420 484 l 423 481 l 423 477 l 422 476 l 422 475 l 436 475 l 441 476 l 442 475 q 450 481 442 477 l 448 488 l 448 490 l 450 492 l 453 492 q 456 486 456 492 l 459 486 l 463 495 l 463 507 q 446 547 463 530 l 444 547 l 436 541 m 540 490 l 540 488 q 549 480 540 480 q 589 517 568 480 q 584 528 587 528 l 578 528 q 541 496 554 517 l 540 490 m 576 524 l 578 521 q 553 495 578 505 l 551 495 l 548 498 q 574 524 548 510 l 576 524 m 551 499 l 551 497 l 553 497 q 576 521 576 507 l 574 522 l 574 522 q 551 499 551 507 m 461 486 l 465 484 q 478 488 473 488 l 482 488 l 490 486 q 504 499 493 486 l 504 497 l 497 486 q 513 480 509 486 q 536 500 525 500 q 528 507 532 507 l 528 509 l 532 509 q 513 518 532 514 l 513 519 l 520 520 l 520 521 l 513 521 q 488 513 502 521 l 486 513 l 486 513 l 486 521 q 467 492 484 521 l 461 486 m 465 503 l 465 496 l 469 499 l 469 500 l 465 503 m 509 471 l 509 473 l 511 479 q 500 484 507 484 l 499 484 q 480 465 489 484 l 480 465 l 478 465 q 490 483 478 471 l 481 486 l 479 486 q 458 465 466 486 l 456 465 l 456 465 l 465 482 l 463 483 l 460 483 q 437 465 451 483 l 436 465 l 436 465 l 440 473 l 415 473 q 376 488 401 473 l 375 488 l 375 486 q 379 483 379 486 l 379 482 l 362 484 l 335 484 q 328 480 330 484 l 330 480 l 331 481 l 332 481 l 333 480 l 333 479 q 307 462 319 477 q 304 457 304 462 l 310 460 l 312 458 q 297 433 300 446 l 298 433 l 302 436 l 304 436 l 304 435 q 298 410 298 426 l 304 415 l 304 414 l 304 413 l 302 406 l 302 393 q 306 398 306 393 l 308 398 q 317 382 308 389 l 318 382 l 317 383 l 317 385 l 319 387 q 338 374 332 374 l 335 378 l 336 379 q 360 374 348 374 l 363 375 l 363 377 l 360 377 l 360 379 q 408 402 379 382 l 422 406 l 425 393 q 406 362 425 380 l 406 361 q 413 359 413 361 q 399 345 413 357 l 398 341 l 404 341 l 404 340 q 390 328 390 330 l 390 327 l 393 327 l 393 326 q 366 304 387 317 l 348 271 l 358 271 l 369 272 l 370 271 l 370 270 l 368 268 l 368 267 q 408 283 382 267 l 410 283 l 410 283 l 409 279 q 427 295 418 283 l 429 294 l 427 293 l 427 291 l 429 291 l 444 307 l 444 307 l 444 302 q 450 318 448 302 l 450 329 l 453 331 l 454 326 l 456 326 l 457 331 l 453 357 l 454 357 l 457 356 l 457 357 l 448 385 l 448 393 q 458 414 451 414 l 458 415 l 457 415 l 444 410 l 444 411 q 480 419 444 417 q 492 423 480 420 l 494 422 l 494 421 l 490 420 l 490 419 l 492 419 l 511 432 l 515 429 q 528 450 528 442 q 511 455 515 455 l 503 455 q 476 436 492 455 l 465 436 q 434 440 454 436 q 420 431 427 431 q 391 438 398 438 l 385 438 l 361 429 l 346 429 l 342 432 l 342 433 l 343 433 l 347 431 l 360 431 l 385 440 l 392 440 q 421 433 399 440 q 434 442 424 433 l 467 438 l 475 438 q 501 457 492 457 l 511 457 l 532 450 q 557 474 539 450 l 560 480 l 557 480 l 548 478 q 536 488 536 480 l 539 498 q 509 471 525 498 l 509 471 m 400 396 l 400 389 q 388 361 400 374 l 385 363 l 383 363 q 339 353 359 363 l 338 354 l 338 355 l 339 356 l 337 356 q 319 350 331 352 l 319 352 l 304 347 l 302 349 q 236 322 274 332 l 236 321 l 241 320 l 241 318 l 241 318 q 180 333 193 333 l 169 333 l 169 331 l 171 331 l 171 329 q 144 322 159 328 l 144 320 l 149 321 l 150 320 l 150 319 q 136 308 140 315 l 136 307 l 138 307 l 141 308 l 142 307 l 142 306 q 132 292 134 300 l 134 292 l 136 294 l 138 294 l 138 293 q 132 283 132 287 l 132 279 l 136 281 l 136 281 l 136 281 l 136 279 l 138 277 q 81 208 138 270 q 44 192 63 194 l 44 191 l 47 191 l 48 192 l 50 191 l 50 190 q 34 180 34 184 l 35 180 l 39 182 l 39 180 l 22 164 l 22 162 l 27 165 l 28 165 l 28 164 q 19 148 19 153 l 22 150 l 23 149 q 3 92 19 133 l 2 82 q 15 38 11 45 q 99 15 76 15 q 106 22 100 15 l 106 23 l 103 23 q 96 26 98 23 l 96 29 l 98 31 l 98 31 q 109 26 102 31 l 111 34 l 111 40 q 94 62 108 52 l 94 63 l 96 63 l 96 64 l 92 65 l 82 65 l 73 63 l 73 64 q 77 66 73 66 l 77 68 q 40 60 47 60 l 40 62 l 42 62 l 78 71 l 79 67 l 87 68 q 100 60 100 68 q 113 36 113 47 q 109 22 113 32 l 117 20 l 128 20 l 132 23 l 132 24 l 125 24 l 122 27 l 122 28 l 126 33 q 132 27 132 31 l 132 27 l 132 29 l 125 54 l 126 54 l 127 52 l 128 52 q 117 76 128 60 l 119 77 l 120 77 l 124 76 q 103 86 111 86 l 103 87 l 111 88 q 104 92 109 92 q 79 86 92 92 l 79 87 l 84 94 l 83 94 q 36 73 50 73 q 25 82 25 76 q 66 159 25 115 q 120 192 94 178 l 163 232 l 176 252 q 184 278 184 272 l 186 278 l 187 275 q 230 283 199 281 l 231 283 l 231 285 q 222 287 222 285 l 222 288 l 227 287 l 264 287 l 269 288 l 273 287 q 311 297 311 293 l 309 299 l 309 300 q 316 314 316 307 q 331 323 325 323 l 332 323 q 317 311 318 315 l 317 310 l 318 310 l 321 311 l 322 310 l 322 309 q 311 299 315 305 l 315 299 l 315 298 q 267 214 269 222 l 267 213 q 269 216 269 213 l 270 218 l 271 218 l 272 216 l 270 208 l 270 207 l 271 199 l 272 199 l 273 205 l 275 205 l 274 195 l 274 190 l 275 182 l 276 182 l 276 189 l 279 189 l 279 188 q 292 109 279 173 q 295 66 295 92 l 295 65 l 293 65 l 293 68 q 264 37 281 68 l 262 37 l 262 40 q 241 14 241 31 l 241 13 l 241 7 l 243 7 l 249 12 l 250 12 q 253 6 253 12 l 254 6 q 273 22 264 6 q 287 38 275 38 l 289 35 l 281 13 l 281 12 q 288 4 281 4 q 295 10 288 10 q 297 4 297 10 l 298 4 q 309 12 304 4 l 309 22 l 304 34 l 304 36 q 311 39 306 39 l 317 39 l 319 37 l 318 17 q 322 9 318 11 l 325 9 q 331 17 325 17 l 333 12 q 341 23 341 16 l 341 25 q 335 41 341 32 l 335 44 q 342 48 337 48 l 362 39 l 376 41 l 376 44 q 372 46 372 44 l 372 47 l 376 52 q 351 64 365 64 l 341 64 q 332 71 341 68 q 319 77 325 77 l 319 76 l 318 69 l 316 69 l 316 71 q 319 100 319 85 l 319 126 l 318 140 l 319 144 q 314 226 318 226 l 313 226 l 304 220 l 302 220 l 302 222 q 336 257 319 230 q 363 304 348 275 l 385 319 l 389 323 l 388 325 l 388 326 q 398 338 388 332 l 396 342 q 410 358 396 345 l 410 359 q 404 361 404 359 l 404 363 q 421 385 412 371 l 421 404 q 400 396 408 401 m 92 381 l 92 380 q 99 377 99 380 l 98 376 l 69 376 l 59 375 l 59 373 l 65 373 l 67 371 l 67 370 q 31 335 50 366 l 29 326 q 58 347 52 347 l 60 347 l 61 346 l 61 345 l 55 338 l 55 337 q 88 347 76 347 l 90 346 l 90 345 l 86 343 l 86 341 l 87 341 q 113 346 102 346 l 117 346 l 117 345 q 109 340 117 343 l 109 339 l 128 339 q 150 327 140 339 l 163 330 l 163 331 q 145 372 150 346 l 143 370 l 143 364 l 144 363 l 144 362 l 143 361 l 142 361 q 124 377 130 377 l 125 376 l 125 373 l 124 373 q 94 381 106 381 l 92 381 m 427 338 l 429 338 l 429 321 l 423 316 q 417 307 423 312 l 415 307 l 414 308 l 413 308 l 398 297 l 396 297 l 396 299 q 416 312 399 299 l 417 312 l 417 310 q 423 321 423 317 l 425 321 l 425 320 l 427 320 l 427 321 l 427 338 m 269 285 l 269 286 l 268 285 l 235 285 q 197 277 235 281 q 180 257 180 272 l 180 254 q 209 249 194 250 l 209 245 l 203 245 l 203 245 l 212 245 q 266 260 239 245 l 266 262 l 251 264 l 251 266 l 269 264 q 298 275 298 264 q 308 292 306 285 q 269 285 302 289 m 408 277 l 406 279 q 381 268 387 268 l 381 266 l 404 235 l 404 235 l 397 241 l 396 241 l 394 216 l 395 203 l 394 193 q 406 66 401 66 q 416 62 406 64 l 418 62 l 429 64 l 457 64 q 490 80 490 67 q 475 86 487 86 l 469 86 l 452 83 l 452 85 l 469 88 l 479 88 l 484 87 l 486 88 l 486 90 q 476 98 486 98 q 446 90 446 93 l 446 90 l 446 92 q 479 100 446 96 l 479 102 q 473 105 478 105 l 467 105 l 439 96 l 439 98 q 454 103 439 100 l 454 104 l 450 107 l 444 107 q 422 98 429 107 l 425 88 l 422 88 l 415 134 q 427 213 415 172 l 427 216 l 431 216 l 431 212 l 432 212 l 432 226 l 435 226 l 435 224 l 436 224 l 436 224 l 433 239 l 435 239 q 437 236 435 236 l 437 237 q 429 255 437 245 l 429 257 l 429 257 l 433 255 l 433 257 l 416 281 l 408 277 m 178 252 q 153 220 166 229 q 107 182 113 182 q 73 157 73 165 q 57 92 57 99 l 60 83 q 81 99 81 94 q 100 159 81 126 l 134 184 q 178 226 159 195 l 201 245 l 201 247 l 201 248 l 178 252 m 27 82 q 37 76 27 77 l 58 83 q 55 94 55 88 l 73 162 q 42 125 53 145 q 27 82 27 102 m 105 94 l 105 94 q 113 90 111 94 l 113 88 l 111 87 l 111 86 l 123 80 l 124 80 l 136 82 l 138 82 l 142 79 l 142 78 l 141 77 l 141 76 q 153 60 153 70 l 153 52 q 149 42 153 47 l 149 41 l 151 39 l 165 39 q 169 48 169 40 l 169 63 q 153 96 169 75 q 159 98 153 98 q 142 104 155 104 l 134 104 l 132 106 l 134 109 l 134 111 l 134 111 q 105 94 129 111 m 481 100 l 482 99 l 482 98 l 486 99 l 486 100 l 481 100 m 488 92 l 488 90 l 488 90 l 488 92 l 488 92 m 163 86 q 171 61 171 71 l 171 46 q 185 52 178 46 l 182 54 l 182 57 q 188 61 185 61 l 188 62 q 174 81 188 72 q 178 84 178 83 l 176 86 l 163 86 m 492 81 l 492 78 l 494 78 l 497 79 l 497 80 l 492 81 m 126 78 l 126 75 q 144 65 144 70 l 142 61 q 149 47 145 61 l 150 47 l 151 52 l 151 59 q 136 75 147 75 l 136 78 l 140 78 l 140 80 l 134 80 l 126 78 m 122 73 l 122 73 q 130 52 130 61 l 128 50 q 134 31 134 38 l 134 31 l 145 34 l 145 36 l 142 36 l 142 42 l 147 42 l 147 44 q 136 64 147 54 l 136 65 l 142 64 l 142 66 q 122 73 128 73 m 186 58 l 185 57 l 185 54 l 191 54 l 191 57 l 186 58 m 161 52 l 167 47 l 167 44 l 165 42 l 162 42 l 159 45 l 159 50 l 161 52 m 161 50 l 161 46 l 163 44 l 165 44 l 165 46 l 162 50 l 161 50 m 374 48 l 374 46 l 379 45 l 381 45 q 375 48 380 48 l 374 48 m 144 40 l 144 38 l 146 38 l 146 40 l 144 40 m 124 27 l 125 26 l 130 26 l 130 27 l 127 29 l 126 29 l 124 27 m 99 28 l 99 27 l 101 25 l 105 25 l 102 28 l 99 28 m 327 14 l 327 12 l 331 7 l 331 9 l 330 15 l 327 14 m 249 9 l 245 4 l 247 4 q 251 7 251 6 l 249 9 m 290 2 l 293 2 l 295 6 l 295 8 l 294 8 q 290 2 290 7 z "},"":{"ha":1080,"x_min":0,"x_max":945,"o":"m 490 825 q 490 834 490 829 q 489 850 489 839 q 553 1005 489 933 q 714 1095 618 1076 q 715 1079 714 1088 q 715 1053 715 1071 q 645 893 715 964 q 507 823 575 823 l 501 823 q 496 824 500 823 q 490 825 493 825 m 945 273 q 805 41 867 106 q 667 -24 743 -24 q 578 -1 633 -24 q 494 21 522 21 q 406 -1 464 21 q 319 -24 347 -24 q 233 6 277 -24 q 144 96 189 36 q 38 296 75 191 q 0 500 0 401 q 85 742 0 648 q 304 835 170 835 q 409 812 350 835 q 493 789 468 789 q 576 812 517 789 q 679 836 635 836 q 814 809 754 836 q 922 725 873 782 q 819 627 852 681 q 786 503 786 572 q 827 368 786 427 q 945 273 868 309 z "}}}
